<svg id="my-svg" width="100%" xmlns="http://www.w3.org/2000/svg" xmlns:xlink="http://www.w3.org/1999/xlink" class="classDiagram" style="max-width: 328.535px; background-color: transparent;" viewBox="0 0 328.53515625 548" role="graphics-document document" aria-roledescription="class"><style>#my-svg{font-family:"trebuchet ms",verdana,arial,sans-serif;font-size:16px;fill:#333;}@keyframes edge-animation-frame{from{stroke-dashoffset:0;}}@keyframes dash{to{stroke-dashoffset:0;}}#my-svg .edge-animation-slow{stroke-dasharray:9,5!important;stroke-dashoffset:900;animation:dash 50s linear infinite;stroke-linecap:round;}#my-svg .edge-animation-fast{stroke-dasharray:9,5!important;stroke-dashoffset:900;animation:dash 20s linear infinite;stroke-linecap:round;}#my-svg .error-icon{fill:#552222;}#my-svg .error-text{fill:#552222;stroke:#552222;}#my-svg .edge-thickness-normal{stroke-width:1px;}#my-svg .edge-thickness-thick{stroke-width:3.5px;}#my-svg .edge-pattern-solid{stroke-dasharray:0;}#my-svg .edge-thickness-invisible{stroke-width:0;fill:none;}#my-svg .edge-pattern-dashed{stroke-dasharray:3;}#my-svg .edge-pattern-dotted{stroke-dasharray:2;}#my-svg .marker{fill:#333333;stroke:#333333;}#my-svg .marker.cross{stroke:#333333;}#my-svg svg{font-family:"trebuchet ms",verdana,arial,sans-serif;font-size:16px;}#my-svg p{margin:0;}#my-svg g.classGroup text{fill:#9370DB;stroke:none;font-family:"trebuchet ms",verdana,arial,sans-serif;font-size:10px;}#my-svg g.classGroup text .title{font-weight:bolder;}#my-svg .nodeLabel,#my-svg .edgeLabel{color:#131300;}#my-svg .edgeLabel .label rect{fill:#ECECFF;}#my-svg .label text{fill:#131300;}#my-svg .labelBkg{background:#ECECFF;}#my-svg .edgeLabel .label span{background:#ECECFF;}#my-svg .classTitle{font-weight:bolder;}#my-svg .node rect,#my-svg .node circle,#my-svg .node ellipse,#my-svg .node polygon,#my-svg .node path{fill:#ECECFF;stroke:#9370DB;stroke-width:1px;}#my-svg .divider{stroke:#9370DB;stroke-width:1;}#my-svg g.clickable{cursor:pointer;}#my-svg g.classGroup rect{fill:#ECECFF;stroke:#9370DB;}#my-svg g.classGroup line{stroke:#9370DB;stroke-width:1;}#my-svg .classLabel .box{stroke:none;stroke-width:0;fill:#ECECFF;opacity:0.5;}#my-svg .classLabel .label{fill:#9370DB;font-size:10px;}#my-svg .relation{stroke:#333333;stroke-width:1;fill:none;}#my-svg .dashed-line{stroke-dasharray:3;}#my-svg .dotted-line{stroke-dasharray:1 2;}#my-svg #compositionStart,#my-svg .composition{fill:#333333!important;stroke:#333333!important;stroke-width:1;}#my-svg #compositionEnd,#my-svg .composition{fill:#333333!important;stroke:#333333!important;stroke-width:1;}#my-svg #dependencyStart,#my-svg .dependency{fill:#333333!important;stroke:#333333!important;stroke-width:1;}#my-svg #dependencyStart,#my-svg .dependency{fill:#333333!important;stroke:#333333!important;stroke-width:1;}#my-svg #extensionStart,#my-svg .extension{fill:transparent!important;stroke:#333333!important;stroke-width:1;}#my-svg #extensionEnd,#my-svg .extension{fill:transparent!important;stroke:#333333!important;stroke-width:1;}#my-svg #aggregationStart,#my-svg .aggregation{fill:transparent!important;stroke:#333333!important;stroke-width:1;}#my-svg #aggregationEnd,#my-svg .aggregation{fill:transparent!important;stroke:#333333!important;stroke-width:1;}#my-svg #lollipopStart,#my-svg .lollipop{fill:#ECECFF!important;stroke:#333333!important;stroke-width:1;}#my-svg #lollipopEnd,#my-svg .lollipop{fill:#ECECFF!important;stroke:#333333!important;stroke-width:1;}#my-svg .edgeTerminals{font-size:11px;line-height:initial;}#my-svg .classTitleText{text-anchor:middle;font-size:18px;fill:#333;}#my-svg .label-icon{display:inline-block;height:1em;overflow:visible;vertical-align:-0.125em;}#my-svg .node .label-icon path{fill:currentColor;stroke:revert;stroke-width:revert;}#my-svg :root{--mermaid-font-family:"trebuchet ms",verdana,arial,sans-serif;}#my-svg .Shape&gt;*{fill:#ffebee!important;}#my-svg .Shape span{fill:#ffebee!important;}#my-svg .Drawable&gt;*{fill:#e3f2fd!important;}#my-svg .Drawable span{fill:#e3f2fd!important;}#my-svg .Colorable&gt;*{fill:#e8f5e8!important;}#my-svg .Colorable span{fill:#e8f5e8!important;}</style><g><defs><marker id="my-svg_class-aggregationStart" class="marker aggregation class" refX="18" refY="7" markerWidth="190" markerHeight="240" orient="auto"><path d="M 18,7 L9,13 L1,7 L9,1 Z"/></marker></defs><defs><marker id="my-svg_class-aggregationEnd" class="marker aggregation class" refX="1" refY="7" markerWidth="20" markerHeight="28" orient="auto"><path d="M 18,7 L9,13 L1,7 L9,1 Z"/></marker></defs><defs><marker id="my-svg_class-extensionStart" class="marker extension class" refX="18" refY="7" markerWidth="190" markerHeight="240" orient="auto"><path d="M 1,7 L18,13 V 1 Z"/></marker></defs><defs><marker id="my-svg_class-extensionEnd" class="marker extension class" refX="1" refY="7" markerWidth="20" markerHeight="28" orient="auto"><path d="M 1,1 V 13 L18,7 Z"/></marker></defs><defs><marker id="my-svg_class-compositionStart" class="marker composition class" refX="18" refY="7" markerWidth="190" markerHeight="240" orient="auto"><path d="M 18,7 L9,13 L1,7 L9,1 Z"/></marker></defs><defs><marker id="my-svg_class-compositionEnd" class="marker composition class" refX="1" refY="7" markerWidth="20" markerHeight="28" orient="auto"><path d="M 18,7 L9,13 L1,7 L9,1 Z"/></marker></defs><defs><marker id="my-svg_class-dependencyStart" class="marker dependency class" refX="6" refY="7" markerWidth="190" markerHeight="240" orient="auto"><path d="M 5,7 L9,13 L1,7 L9,1 Z"/></marker></defs><defs><marker id="my-svg_class-dependencyEnd" class="marker dependency class" refX="13" refY="7" markerWidth="20" markerHeight="28" orient="auto"><path d="M 18,7 L9,13 L14,7 L9,1 Z"/></marker></defs><defs><marker id="my-svg_class-lollipopStart" class="marker lollipop class" refX="13" refY="7" markerWidth="190" markerHeight="240" orient="auto"><circle stroke="black" fill="transparent" cx="7" cy="7" r="6"/></marker></defs><defs><marker id="my-svg_class-lollipopEnd" class="marker lollipop class" refX="1" refY="7" markerWidth="190" markerHeight="240" orient="auto"><circle stroke="black" fill="transparent" cx="7" cy="7" r="6"/></marker></defs><g class="root"><g class="clusters"/><g class="edgePaths"><path d="M232.133,220.476L233.27,222.23C234.406,223.984,236.68,227.492,237.816,233.413C238.953,239.333,238.953,247.667,238.953,251.833L238.953,256" id="id_Shape_Circle_1" class="edge-thickness-normal edge-pattern-solid relation" style=";;;" data-edge="true" data-et="edge" data-id="id_Shape_Circle_1" data-points="W3sieCI6MjIyLjc1MTYzODEwNDgzODcyLCJ5IjoyMDZ9LHsieCI6MjM4Ljk1MzEyNSwieSI6MjMxfSx7IngiOjIzOC45NTMxMjUsInkiOjI1Nn1d" marker-start="url(#my-svg_class-extensionStart)"/><path d="M68.812,217.931L67.049,220.109C65.286,222.287,61.76,226.644,59.997,232.988C58.234,239.333,58.234,247.667,58.234,251.833L58.234,256" id="id_Shape_Rectangle_2" class="edge-thickness-normal edge-pattern-solid relation" style=";;;" data-edge="true" data-et="edge" data-id="id_Shape_Rectangle_2" data-points="W3sieCI6NzkuNjY0MDYyNSwieSI6MjA0LjUyMjM0MTU4NDkyOTE3fSx7IngiOjU4LjIzNDM3NSwieSI6MjMxfSx7IngiOjU4LjIzNDM3NSwieSI6MjU2fV0=" marker-start="url(#my-svg_class-extensionStart)"/><path d="M204.719,323.384L195.365,330.32C186.01,337.256,167.302,351.128,156.212,360.225C145.121,369.321,141.649,373.642,139.913,375.803L138.177,377.963" id="id_Circle_Drawable_3" class="edge-thickness-normal edge-pattern-dashed relation" style=";;;" data-edge="true" data-et="edge" data-id="id_Circle_Drawable_3" data-points="W3sieCI6MjA0LjcxODc1LCJ5IjozMjMuMzg0MjI5NjM4NTk1OX0seyJ4IjoxNDguNTkzNzUsInkiOjM2NX0seyJ4IjoxMjcuMzcxMDkzNzUsInkiOjM5MS40MDk2ODMwNjQzNTkzNH1d" marker-end="url(#my-svg_class-extensionEnd)"/><path d="M58.234,340L58.234,344.167C58.234,348.333,58.234,356.667,58.365,362.139C58.496,367.612,58.757,370.224,58.887,371.53L59.018,372.836" id="id_Rectangle_Drawable_4" class="edge-thickness-normal edge-pattern-dashed relation" style=";;;" data-edge="true" data-et="edge" data-id="id_Rectangle_Drawable_4" data-points="W3sieCI6NTguMjM0Mzc1LCJ5IjozNDB9LHsieCI6NTguMjM0Mzc1LCJ5IjozNjV9LHsieCI6NjAuNzM0Mzc1LCJ5IjozOTB9XQ==" marker-end="url(#my-svg_class-extensionEnd)"/><path d="M245.222,340L245.844,344.167C246.466,348.333,247.709,356.667,248.331,362.125C248.953,367.583,248.953,370.167,248.953,371.458L248.953,372.75" id="id_Circle_Colorable_5" class="edge-thickness-normal edge-pattern-dashed relation" style=";;;" data-edge="true" data-et="edge" data-id="id_Circle_Colorable_5" data-points="W3sieCI6MjQ1LjIyMTc4MTcxNjQxNzkyLCJ5IjozNDB9LHsieCI6MjQ4Ljk1MzEyNSwieSI6MzY1fSx7IngiOjI0OC45NTMxMjUsInkiOjM5MH1d" marker-end="url(#my-svg_class-extensionEnd)"/></g><g class="edgeLabels"><g class="edgeLabel"><g class="label" data-id="id_Shape_Circle_1" transform="translate(0, 0)"><foreignObject width="0" height="0"><div xmlns="http://www.w3.org/1999/xhtml" class="labelBkg" style="display: table-cell; white-space: nowrap; line-height: 1.5; max-width: 200px; text-align: center;"><span class="edgeLabel"></span></div></foreignObject></g></g><g class="edgeLabel"><g class="label" data-id="id_Shape_Rectangle_2" transform="translate(0, 0)"><foreignObject width="0" height="0"><div xmlns="http://www.w3.org/1999/xhtml" class="labelBkg" style="display: table-cell; white-space: nowrap; line-height: 1.5; max-width: 200px; text-align: center;"><span class="edgeLabel"></span></div></foreignObject></g></g><g class="edgeLabel"><g class="label" data-id="id_Circle_Drawable_3" transform="translate(0, 0)"><foreignObject width="0" height="0"><div xmlns="http://www.w3.org/1999/xhtml" class="labelBkg" style="display: table-cell; white-space: nowrap; line-height: 1.5; max-width: 200px; text-align: center;"><span class="edgeLabel"></span></div></foreignObject></g></g><g class="edgeLabel"><g class="label" data-id="id_Rectangle_Drawable_4" transform="translate(0, 0)"><foreignObject width="0" height="0"><div xmlns="http://www.w3.org/1999/xhtml" class="labelBkg" style="display: table-cell; white-space: nowrap; line-height: 1.5; max-width: 200px; text-align: center;"><span class="edgeLabel"></span></div></foreignObject></g></g><g class="edgeLabel"><g class="label" data-id="id_Circle_Colorable_5" transform="translate(0, 0)"><foreignObject width="0" height="0"><div xmlns="http://www.w3.org/1999/xhtml" class="labelBkg" style="display: table-cell; white-space: nowrap; line-height: 1.5; max-width: 200px; text-align: center;"><span class="edgeLabel"></span></div></foreignObject></g></g></g><g class="nodes"><g class="node default" id="classId-Shape-0" transform="translate(158.59375, 107)"><g class="basic label-container"><path d="M-78.9296875 -99 L78.9296875 -99 L78.9296875 99 L-78.9296875 99" stroke="none" stroke-width="0" fill="#ffebee" style="fill:#ffebee"/><path d="M-78.9296875 -99 C-39.61889643455837 -99, -0.30810536911674546 -99, 78.9296875 -99 M-78.9296875 -99 C-28.574255073832852 -99, 21.781177352334296 -99, 78.9296875 -99 M78.9296875 -99 C78.9296875 -39.532450711913214, 78.9296875 19.935098576173573, 78.9296875 99 M78.9296875 -99 C78.9296875 -39.15716697554841, 78.9296875 20.685666048903187, 78.9296875 99 M78.9296875 99 C44.92844413029007 99, 10.927200760580135 99, -78.9296875 99 M78.9296875 99 C40.30937453451791 99, 1.6890615690358146 99, -78.9296875 99 M-78.9296875 99 C-78.9296875 23.833707939142485, -78.9296875 -51.33258412171503, -78.9296875 -99 M-78.9296875 99 C-78.9296875 20.146212045968454, -78.9296875 -58.70757590806309, -78.9296875 -99" stroke="#9370DB" stroke-width="1.3" fill="none" stroke-dasharray="0 0" style="fill:#ffebee"/></g><g class="annotation-group text" transform="translate(-37.359375, -75)"><g class="label" style="" transform="translate(0,-12)"><foreignObject width="74.71875" height="24"><div xmlns="http://www.w3.org/1999/xhtml" style="display: table-cell; white-space: nowrap; line-height: 1.5; max-width: 116px; text-align: center;"><span class="nodeLabel markdown-node-label" style="fill:#ffebee"><p>«abstract»</p></span></div></foreignObject></g></g><g class="label-group text" transform="translate(-24.0078125, -51)"><g class="label" style="font-weight: bolder" transform="translate(0,-12)"><foreignObject width="48.015625" height="24"><div xmlns="http://www.w3.org/1999/xhtml" style="display: table-cell; white-space: nowrap; line-height: 1.5; max-width: 89px; text-align: center;"><span class="nodeLabel markdown-node-label" style="fill:#ffebee"><p>Shape</p></span></div></foreignObject></g></g><g class="members-group text" transform="translate(-66.9296875, -3)"/><g class="methods-group text" transform="translate(-66.9296875, 27)"><g class="label" style="font-style:italic;" transform="translate(0,-12)"><foreignObject width="52.03125" height="24"><div xmlns="http://www.w3.org/1999/xhtml" style="display: table-cell; white-space: nowrap; line-height: 1.5; max-width: 101px; text-align: center;"><span class="nodeLabel markdown-node-label" style="fill:#ffebee"><p>+area()</p></span></div></foreignObject></g><g class="label" style="font-style:italic;" transform="translate(0,12)"><foreignObject width="87.578125" height="24"><div xmlns="http://www.w3.org/1999/xhtml" style="display: table-cell; white-space: nowrap; line-height: 1.5; max-width: 135px; text-align: center;"><span class="nodeLabel markdown-node-label" style="fill:#ffebee"><p>+perimeter()</p></span></div></foreignObject></g><g class="label" style="" transform="translate(0,36)"><foreignObject width="96.5" height="24"><div xmlns="http://www.w3.org/1999/xhtml" style="display: table-cell; white-space: nowrap; line-height: 1.5; max-width: 147px; text-align: center;"><span class="nodeLabel markdown-node-label" style="fill:#ffebee"><p>+displayInfo()</p></span></div></foreignObject></g></g><g class="divider" style="fill:#ffebee"><path d="M-78.9296875 -27 C-22.572337834105255 -27, 33.78501183178949 -27, 78.9296875 -27 M-78.9296875 -27 C-32.96926112500352 -27, 12.99116524999296 -27, 78.9296875 -27" stroke="#9370DB" stroke-width="1.3" fill="none" stroke-dasharray="0 0" style="fill:#ffebee"/></g><g class="divider" style="fill:#ffebee"><path d="M-78.9296875 -3 C-20.208123174909232 -3, 38.513441150181535 -3, 78.9296875 -3 M-78.9296875 -3 C-17.215490189955958 -3, 44.498707120088085 -3, 78.9296875 -3" stroke="#9370DB" stroke-width="1.3" fill="none" stroke-dasharray="0 0" style="fill:#ffebee"/></g></g><g class="node default" id="classId-Circle-1" transform="translate(238.953125, 298)"><g class="basic label-container"><path d="M-34.234375 -42 L34.234375 -42 L34.234375 42 L-34.234375 42" stroke="none" stroke-width="0" fill="#ECECFF" style=""/><path d="M-34.234375 -42 C-16.087597547030487 -42, 2.0591799059390254 -42, 34.234375 -42 M-34.234375 -42 C-18.440389178469665 -42, -2.6464033569393273 -42, 34.234375 -42 M34.234375 -42 C34.234375 -14.554224601922442, 34.234375 12.891550796155116, 34.234375 42 M34.234375 -42 C34.234375 -15.6136337331812, 34.234375 10.772732533637601, 34.234375 42 M34.234375 42 C11.88774524480893 42, -10.458884510382141 42, -34.234375 42 M34.234375 42 C19.341482981945926 42, 4.448590963891853 42, -34.234375 42 M-34.234375 42 C-34.234375 9.371214854033305, -34.234375 -23.25757029193339, -34.234375 -42 M-34.234375 42 C-34.234375 16.59638984750823, -34.234375 -8.807220304983538, -34.234375 -42" stroke="#9370DB" stroke-width="1.3" fill="none" stroke-dasharray="0 0" style=""/></g><g class="annotation-group text" transform="translate(0, -18)"/><g class="label-group text" transform="translate(-22.234375, -18)"><g class="label" style="font-weight: bolder" transform="translate(0,-12)"><foreignObject width="44.46875" height="24"><div xmlns="http://www.w3.org/1999/xhtml" style="display: table-cell; white-space: nowrap; line-height: 1.5; max-width: 89px; text-align: center;"><span class="nodeLabel markdown-node-label" style=""><p>Circle</p></span></div></foreignObject></g></g><g class="members-group text" transform="translate(-22.234375, 30)"/><g class="methods-group text" transform="translate(-22.234375, 60)"/><g class="divider" style=""><path d="M-34.234375 6 C-17.506406952986435 6, -0.7784389059728696 6, 34.234375 6 M-34.234375 6 C-17.863716194134817 6, -1.4930573882696336 6, 34.234375 6" stroke="#9370DB" stroke-width="1.3" fill="none" stroke-dasharray="0 0" style=""/></g><g class="divider" style=""><path d="M-34.234375 24 C-13.654200302506482 24, 6.925974394987037 24, 34.234375 24 M-34.234375 24 C-6.890611798525995 24, 20.45315140294801 24, 34.234375 24" stroke="#9370DB" stroke-width="1.3" fill="none" stroke-dasharray="0 0" style=""/></g></g><g class="node default" id="classId-Rectangle-2" transform="translate(58.234375, 298)"><g class="basic label-container"><path d="M-50.234375 -42 L50.234375 -42 L50.234375 42 L-50.234375 42" stroke="none" stroke-width="0" fill="#ECECFF" style=""/><path d="M-50.234375 -42 C-10.342194960462969 -42, 29.549985079074062 -42, 50.234375 -42 M-50.234375 -42 C-20.155424172770157 -42, 9.923526654459685 -42, 50.234375 -42 M50.234375 -42 C50.234375 -21.50193537456167, 50.234375 -1.0038707491233367, 50.234375 42 M50.234375 -42 C50.234375 -15.100362894979561, 50.234375 11.799274210040878, 50.234375 42 M50.234375 42 C11.086620790603959 42, -28.061133418792082 42, -50.234375 42 M50.234375 42 C16.222216267624376 42, -17.78994246475125 42, -50.234375 42 M-50.234375 42 C-50.234375 23.417376886567183, -50.234375 4.834753773134366, -50.234375 -42 M-50.234375 42 C-50.234375 13.275493850163805, -50.234375 -15.44901229967239, -50.234375 -42" stroke="#9370DB" stroke-width="1.3" fill="none" stroke-dasharray="0 0" style=""/></g><g class="annotation-group text" transform="translate(0, -18)"/><g class="label-group text" transform="translate(-38.234375, -18)"><g class="label" style="font-weight: bolder" transform="translate(0,-12)"><foreignObject width="76.46875" height="24"><div xmlns="http://www.w3.org/1999/xhtml" style="display: table-cell; white-space: nowrap; line-height: 1.5; max-width: 114px; text-align: center;"><span class="nodeLabel markdown-node-label" style=""><p>Rectangle</p></span></div></foreignObject></g></g><g class="members-group text" transform="translate(-38.234375, 30)"/><g class="methods-group text" transform="translate(-38.234375, 60)"/><g class="divider" style=""><path d="M-50.234375 6 C-25.12262058879172 6, -0.010866177583437775 6, 50.234375 6 M-50.234375 6 C-21.612223363811545 6, 7.009928272376911 6, 50.234375 6" stroke="#9370DB" stroke-width="1.3" fill="none" stroke-dasharray="0 0" style=""/></g><g class="divider" style=""><path d="M-50.234375 24 C-11.94274347555588 24, 26.34888804888824 24, 50.234375 24 M-50.234375 24 C-16.929129740228824 24, 16.376115519542353 24, 50.234375 24" stroke="#9370DB" stroke-width="1.3" fill="none" stroke-dasharray="0 0" style=""/></g></g><g class="node default" id="classId-Drawable-3" transform="translate(68.234375, 465)"><g class="basic label-container"><path d="M-59.13671875 -75 L59.13671875 -75 L59.13671875 75 L-59.13671875 75" stroke="none" stroke-width="0" fill="#e3f2fd" style="fill:#e3f2fd"/><path d="M-59.13671875 -75 C-17.565562501330376 -75, 24.005593747339248 -75, 59.13671875 -75 M-59.13671875 -75 C-35.313440533309134 -75, -11.49016231661826 -75, 59.13671875 -75 M59.13671875 -75 C59.13671875 -16.970413483638666, 59.13671875 41.05917303272267, 59.13671875 75 M59.13671875 -75 C59.13671875 -24.965342074968852, 59.13671875 25.069315850062296, 59.13671875 75 M59.13671875 75 C13.881077895340823 75, -31.374562959318354 75, -59.13671875 75 M59.13671875 75 C29.160164634214244 75, -0.8163894815715125 75, -59.13671875 75 M-59.13671875 75 C-59.13671875 25.114507327700963, -59.13671875 -24.770985344598074, -59.13671875 -75 M-59.13671875 75 C-59.13671875 43.865314142471235, -59.13671875 12.730628284942476, -59.13671875 -75" stroke="#9370DB" stroke-width="1.3" fill="none" stroke-dasharray="0 0" style="fill:#e3f2fd"/></g><g class="annotation-group text" transform="translate(-39.5859375, -51)"><g class="label" style="" transform="translate(0,-12)"><foreignObject width="79.171875" height="24"><div xmlns="http://www.w3.org/1999/xhtml" style="display: table-cell; white-space: nowrap; line-height: 1.5; max-width: 122px; text-align: center;"><span class="nodeLabel markdown-node-label" style="fill:#e3f2fd"><p>«interface»</p></span></div></foreignObject></g></g><g class="label-group text" transform="translate(-35.5703125, -27)"><g class="label" style="font-weight: bolder" transform="translate(0,-12)"><foreignObject width="71.140625" height="24"><div xmlns="http://www.w3.org/1999/xhtml" style="display: table-cell; white-space: nowrap; line-height: 1.5; max-width: 112px; text-align: center;"><span class="nodeLabel markdown-node-label" style="fill:#e3f2fd"><p>Drawable</p></span></div></foreignObject></g></g><g class="members-group text" transform="translate(-47.13671875, 21)"/><g class="methods-group text" transform="translate(-47.13671875, 51)"><g class="label" style="" transform="translate(0,-12)"><foreignObject width="54.6875" height="24"><div xmlns="http://www.w3.org/1999/xhtml" style="display: table-cell; white-space: nowrap; line-height: 1.5; max-width: 106px; text-align: center;"><span class="nodeLabel markdown-node-label" style="fill:#e3f2fd"><p>+draw()</p></span></div></foreignObject></g></g><g class="divider" style="fill:#e3f2fd"><path d="M-59.13671875 -3 C-22.990133527896482 -3, 13.156451694207036 -3, 59.13671875 -3 M-59.13671875 -3 C-18.504190564752392 -3, 22.128337620495216 -3, 59.13671875 -3" stroke="#9370DB" stroke-width="1.3" fill="none" stroke-dasharray="0 0" style="fill:#e3f2fd"/></g><g class="divider" style="fill:#e3f2fd"><path d="M-59.13671875 21 C-30.469754631361294 21, -1.8027905127225878 21, 59.13671875 21 M-59.13671875 21 C-33.89032819143321 21, -8.643937632866425 21, 59.13671875 21" stroke="#9370DB" stroke-width="1.3" fill="none" stroke-dasharray="0 0" style="fill:#e3f2fd"/></g></g><g class="node default" id="classId-Colorable-4" transform="translate(248.953125, 465)"><g class="basic label-container"><path d="M-71.58203125 -75 L71.58203125 -75 L71.58203125 75 L-71.58203125 75" stroke="none" stroke-width="0" fill="#e8f5e8" style="fill:#e8f5e8"/><path d="M-71.58203125 -75 C-29.887520446417675 -75, 11.80699035716465 -75, 71.58203125 -75 M-71.58203125 -75 C-18.391185699329405 -75, 34.79965985134119 -75, 71.58203125 -75 M71.58203125 -75 C71.58203125 -35.72462248329951, 71.58203125 3.550755033400975, 71.58203125 75 M71.58203125 -75 C71.58203125 -25.14532780519483, 71.58203125 24.709344389610337, 71.58203125 75 M71.58203125 75 C24.963518469769127 75, -21.654994310461745 75, -71.58203125 75 M71.58203125 75 C36.24426138225253 75, 0.9064915145050634 75, -71.58203125 75 M-71.58203125 75 C-71.58203125 42.91832590183868, -71.58203125 10.836651803677356, -71.58203125 -75 M-71.58203125 75 C-71.58203125 21.673636315392933, -71.58203125 -31.652727369214134, -71.58203125 -75" stroke="#9370DB" stroke-width="1.3" fill="none" stroke-dasharray="0 0" style="fill:#e8f5e8"/></g><g class="annotation-group text" transform="translate(-39.5859375, -51)"><g class="label" style="" transform="translate(0,-12)"><foreignObject width="79.171875" height="24"><div xmlns="http://www.w3.org/1999/xhtml" style="display: table-cell; white-space: nowrap; line-height: 1.5; max-width: 122px; text-align: center;"><span class="nodeLabel markdown-node-label" style="fill:#e8f5e8"><p>«interface»</p></span></div></foreignObject></g></g><g class="label-group text" transform="translate(-36.8984375, -27)"><g class="label" style="font-weight: bolder" transform="translate(0,-12)"><foreignObject width="73.796875" height="24"><div xmlns="http://www.w3.org/1999/xhtml" style="display: table-cell; white-space: nowrap; line-height: 1.5; max-width: 113px; text-align: center;"><span class="nodeLabel markdown-node-label" style="fill:#e8f5e8"><p>Colorable</p></span></div></foreignObject></g></g><g class="members-group text" transform="translate(-59.58203125, 21)"/><g class="methods-group text" transform="translate(-59.58203125, 51)"><g class="label" style="" transform="translate(0,-12)"><foreignObject width="79.578125" height="24"><div xmlns="http://www.w3.org/1999/xhtml" style="display: table-cell; white-space: nowrap; line-height: 1.5; max-width: 128px; text-align: center;"><span class="nodeLabel markdown-node-label" style="fill:#e8f5e8"><p>+setColor()</p></span></div></foreignObject></g></g><g class="divider" style="fill:#e8f5e8"><path d="M-71.58203125 -3 C-31.34525509082946 -3, 8.891521068341078 -3, 71.58203125 -3 M-71.58203125 -3 C-40.707999934438675 -3, -9.833968618877343 -3, 71.58203125 -3" stroke="#9370DB" stroke-width="1.3" fill="none" stroke-dasharray="0 0" style="fill:#e8f5e8"/></g><g class="divider" style="fill:#e8f5e8"><path d="M-71.58203125 21 C-16.603508856307144 21, 38.37501353738571 21, 71.58203125 21 M-71.58203125 21 C-17.988627487847012 21, 35.604776274305976 21, 71.58203125 21" stroke="#9370DB" stroke-width="1.3" fill="none" stroke-dasharray="0 0" style="fill:#e8f5e8"/></g></g></g></g></g></svg>