<svg id="my-svg" width="100%" xmlns="http://www.w3.org/2000/svg" xmlns:xlink="http://www.w3.org/1999/xlink" class="classDiagram" style="max-width: 240.398px; background-color: transparent;" viewBox="0 0 240.3984375 458" role="graphics-document document" aria-roledescription="class"><style>#my-svg{font-family:"trebuchet ms",verdana,arial,sans-serif;font-size:16px;fill:#333;}@keyframes edge-animation-frame{from{stroke-dashoffset:0;}}@keyframes dash{to{stroke-dashoffset:0;}}#my-svg .edge-animation-slow{stroke-dasharray:9,5!important;stroke-dashoffset:900;animation:dash 50s linear infinite;stroke-linecap:round;}#my-svg .edge-animation-fast{stroke-dasharray:9,5!important;stroke-dashoffset:900;animation:dash 20s linear infinite;stroke-linecap:round;}#my-svg .error-icon{fill:#552222;}#my-svg .error-text{fill:#552222;stroke:#552222;}#my-svg .edge-thickness-normal{stroke-width:1px;}#my-svg .edge-thickness-thick{stroke-width:3.5px;}#my-svg .edge-pattern-solid{stroke-dasharray:0;}#my-svg .edge-thickness-invisible{stroke-width:0;fill:none;}#my-svg .edge-pattern-dashed{stroke-dasharray:3;}#my-svg .edge-pattern-dotted{stroke-dasharray:2;}#my-svg .marker{fill:#333333;stroke:#333333;}#my-svg .marker.cross{stroke:#333333;}#my-svg svg{font-family:"trebuchet ms",verdana,arial,sans-serif;font-size:16px;}#my-svg p{margin:0;}#my-svg g.classGroup text{fill:#9370DB;stroke:none;font-family:"trebuchet ms",verdana,arial,sans-serif;font-size:10px;}#my-svg g.classGroup text .title{font-weight:bolder;}#my-svg .nodeLabel,#my-svg .edgeLabel{color:#131300;}#my-svg .edgeLabel .label rect{fill:#ECECFF;}#my-svg .label text{fill:#131300;}#my-svg .labelBkg{background:#ECECFF;}#my-svg .edgeLabel .label span{background:#ECECFF;}#my-svg .classTitle{font-weight:bolder;}#my-svg .node rect,#my-svg .node circle,#my-svg .node ellipse,#my-svg .node polygon,#my-svg .node path{fill:#ECECFF;stroke:#9370DB;stroke-width:1px;}#my-svg .divider{stroke:#9370DB;stroke-width:1;}#my-svg g.clickable{cursor:pointer;}#my-svg g.classGroup rect{fill:#ECECFF;stroke:#9370DB;}#my-svg g.classGroup line{stroke:#9370DB;stroke-width:1;}#my-svg .classLabel .box{stroke:none;stroke-width:0;fill:#ECECFF;opacity:0.5;}#my-svg .classLabel .label{fill:#9370DB;font-size:10px;}#my-svg .relation{stroke:#333333;stroke-width:1;fill:none;}#my-svg .dashed-line{stroke-dasharray:3;}#my-svg .dotted-line{stroke-dasharray:1 2;}#my-svg #compositionStart,#my-svg .composition{fill:#333333!important;stroke:#333333!important;stroke-width:1;}#my-svg #compositionEnd,#my-svg .composition{fill:#333333!important;stroke:#333333!important;stroke-width:1;}#my-svg #dependencyStart,#my-svg .dependency{fill:#333333!important;stroke:#333333!important;stroke-width:1;}#my-svg #dependencyStart,#my-svg .dependency{fill:#333333!important;stroke:#333333!important;stroke-width:1;}#my-svg #extensionStart,#my-svg .extension{fill:transparent!important;stroke:#333333!important;stroke-width:1;}#my-svg #extensionEnd,#my-svg .extension{fill:transparent!important;stroke:#333333!important;stroke-width:1;}#my-svg #aggregationStart,#my-svg .aggregation{fill:transparent!important;stroke:#333333!important;stroke-width:1;}#my-svg #aggregationEnd,#my-svg .aggregation{fill:transparent!important;stroke:#333333!important;stroke-width:1;}#my-svg #lollipopStart,#my-svg .lollipop{fill:#ECECFF!important;stroke:#333333!important;stroke-width:1;}#my-svg #lollipopEnd,#my-svg .lollipop{fill:#ECECFF!important;stroke:#333333!important;stroke-width:1;}#my-svg .edgeTerminals{font-size:11px;line-height:initial;}#my-svg .classTitleText{text-anchor:middle;font-size:18px;fill:#333;}#my-svg .label-icon{display:inline-block;height:1em;overflow:visible;vertical-align:-0.125em;}#my-svg .node .label-icon path{fill:currentColor;stroke:revert;stroke-width:revert;}#my-svg :root{--mermaid-font-family:"trebuchet ms",verdana,arial,sans-serif;}</style><g><defs><marker id="my-svg_class-aggregationStart" class="marker aggregation class" refX="18" refY="7" markerWidth="190" markerHeight="240" orient="auto"><path d="M 18,7 L9,13 L1,7 L9,1 Z"/></marker></defs><defs><marker id="my-svg_class-aggregationEnd" class="marker aggregation class" refX="1" refY="7" markerWidth="20" markerHeight="28" orient="auto"><path d="M 18,7 L9,13 L1,7 L9,1 Z"/></marker></defs><defs><marker id="my-svg_class-extensionStart" class="marker extension class" refX="18" refY="7" markerWidth="190" markerHeight="240" orient="auto"><path d="M 1,7 L18,13 V 1 Z"/></marker></defs><defs><marker id="my-svg_class-extensionEnd" class="marker extension class" refX="1" refY="7" markerWidth="20" markerHeight="28" orient="auto"><path d="M 1,1 V 13 L18,7 Z"/></marker></defs><defs><marker id="my-svg_class-compositionStart" class="marker composition class" refX="18" refY="7" markerWidth="190" markerHeight="240" orient="auto"><path d="M 18,7 L9,13 L1,7 L9,1 Z"/></marker></defs><defs><marker id="my-svg_class-compositionEnd" class="marker composition class" refX="1" refY="7" markerWidth="20" markerHeight="28" orient="auto"><path d="M 18,7 L9,13 L1,7 L9,1 Z"/></marker></defs><defs><marker id="my-svg_class-dependencyStart" class="marker dependency class" refX="6" refY="7" markerWidth="190" markerHeight="240" orient="auto"><path d="M 5,7 L9,13 L1,7 L9,1 Z"/></marker></defs><defs><marker id="my-svg_class-dependencyEnd" class="marker dependency class" refX="13" refY="7" markerWidth="20" markerHeight="28" orient="auto"><path d="M 18,7 L9,13 L14,7 L9,1 Z"/></marker></defs><defs><marker id="my-svg_class-lollipopStart" class="marker lollipop class" refX="13" refY="7" markerWidth="190" markerHeight="240" orient="auto"><circle stroke="black" fill="transparent" cx="7" cy="7" r="6"/></marker></defs><defs><marker id="my-svg_class-lollipopEnd" class="marker lollipop class" refX="1" refY="7" markerWidth="190" markerHeight="240" orient="auto"><circle stroke="black" fill="transparent" cx="7" cy="7" r="6"/></marker></defs><g class="root"><g class="clusters"/><g class="edgePaths"><path d="M53.825,196.79L52.803,198.491C51.782,200.193,49.738,203.597,48.717,209.465C47.695,215.333,47.695,223.667,47.695,227.833L47.695,232" id="id_Shape_Circle_1" class="edge-thickness-normal edge-pattern-solid relation" style=";;;" data-edge="true" data-et="edge" data-id="id_Shape_Circle_1" data-points="W3sieCI6NjIuNzAyOTg1NDkxMDcxNDMsInkiOjE4Mn0seyJ4Ijo0Ny42OTUzMTI1LCJ5IjoyMDd9LHsieCI6NDcuNjk1MzEyNSwieSI6MjMyfV0=" marker-start="url(#my-svg_class-extensionStart)"/><path d="M176.035,196.79L177.056,198.491C178.078,200.193,180.121,203.597,181.143,209.465C182.164,215.333,182.164,223.667,182.164,227.833L182.164,232" id="id_Shape_Rectangle_2" class="edge-thickness-normal edge-pattern-solid relation" style=";;;" data-edge="true" data-et="edge" data-id="id_Shape_Rectangle_2" data-points="W3sieCI6MTY3LjE1NjM4OTUwODkyODU2LCJ5IjoxODJ9LHsieCI6MTgyLjE2NDA2MjUsInkiOjIwN30seyJ4IjoxODIuMTY0MDYyNSwieSI6MjMyfV0=" marker-start="url(#my-svg_class-extensionStart)"/><path d="M182.164,333.25L182.164,334.542C182.164,335.833,182.164,338.417,182.164,343.875C182.164,349.333,182.164,357.667,182.164,361.833L182.164,366" id="id_Rectangle_Square_3" class="edge-thickness-normal edge-pattern-solid relation" style=";;;" data-edge="true" data-et="edge" data-id="id_Rectangle_Square_3" data-points="W3sieCI6MTgyLjE2NDA2MjUsInkiOjMxNn0seyJ4IjoxODIuMTY0MDYyNSwieSI6MzQxfSx7IngiOjE4Mi4xNjQwNjI1LCJ5IjozNjZ9XQ==" marker-start="url(#my-svg_class-extensionStart)"/></g><g class="edgeLabels"><g class="edgeLabel"><g class="label" data-id="id_Shape_Circle_1" transform="translate(0, 0)"><foreignObject width="0" height="0"><div xmlns="http://www.w3.org/1999/xhtml" class="labelBkg" style="display: table-cell; white-space: nowrap; line-height: 1.5; max-width: 200px; text-align: center;"><span class="edgeLabel"></span></div></foreignObject></g></g><g class="edgeLabel"><g class="label" data-id="id_Shape_Rectangle_2" transform="translate(0, 0)"><foreignObject width="0" height="0"><div xmlns="http://www.w3.org/1999/xhtml" class="labelBkg" style="display: table-cell; white-space: nowrap; line-height: 1.5; max-width: 200px; text-align: center;"><span class="edgeLabel"></span></div></foreignObject></g></g><g class="edgeLabel"><g class="label" data-id="id_Rectangle_Square_3" transform="translate(0, 0)"><foreignObject width="0" height="0"><div xmlns="http://www.w3.org/1999/xhtml" class="labelBkg" style="display: table-cell; white-space: nowrap; line-height: 1.5; max-width: 200px; text-align: center;"><span class="edgeLabel"></span></div></foreignObject></g></g></g><g class="nodes"><g class="node default" id="classId-Shape-0" transform="translate(114.9296875, 95)"><g class="basic label-container"><path d="M-106.9296875 -87 L106.9296875 -87 L106.9296875 87 L-106.9296875 87" stroke="none" stroke-width="0" fill="#ECECFF" style=""/><path d="M-106.9296875 -87 C-30.88822230146286 -87, 45.15324289707428 -87, 106.9296875 -87 M-106.9296875 -87 C-38.451342192170316 -87, 30.02700311565937 -87, 106.9296875 -87 M106.9296875 -87 C106.9296875 -18.03172785814415, 106.9296875 50.9365442837117, 106.9296875 87 M106.9296875 -87 C106.9296875 -29.522583351422192, 106.9296875 27.954833297155616, 106.9296875 87 M106.9296875 87 C25.578044552202016 87, -55.77359839559597 87, -106.9296875 87 M106.9296875 87 C55.947593285035786 87, 4.965499070071573 87, -106.9296875 87 M-106.9296875 87 C-106.9296875 23.633016959274663, -106.9296875 -39.733966081450674, -106.9296875 -87 M-106.9296875 87 C-106.9296875 47.27368831123879, -106.9296875 7.547376622477586, -106.9296875 -87" stroke="#9370DB" stroke-width="1.3" fill="none" stroke-dasharray="0 0" style=""/></g><g class="annotation-group text" transform="translate(-37.359375, -63)"><g class="label" style="" transform="translate(0,-12)"><foreignObject width="74.71875" height="24"><div xmlns="http://www.w3.org/1999/xhtml" style="display: table-cell; white-space: nowrap; line-height: 1.5; max-width: 116px; text-align: center;"><span class="nodeLabel markdown-node-label" style=""><p>«abstract»</p></span></div></foreignObject></g></g><g class="label-group text" transform="translate(-24.0078125, -39)"><g class="label" style="font-weight: bolder" transform="translate(0,-12)"><foreignObject width="48.015625" height="24"><div xmlns="http://www.w3.org/1999/xhtml" style="display: table-cell; white-space: nowrap; line-height: 1.5; max-width: 89px; text-align: center;"><span class="nodeLabel markdown-node-label" style=""><p>Shape</p></span></div></foreignObject></g></g><g class="members-group text" transform="translate(-94.9296875, 9)"/><g class="methods-group text" transform="translate(-94.9296875, 39)"><g class="label" style="" transform="translate(0,-12)"><foreignObject width="116.953125" height="24"><div xmlns="http://www.w3.org/1999/xhtml" style="display: table-cell; white-space: nowrap; line-height: 1.5; max-width: 162px; text-align: center;"><span class="nodeLabel markdown-node-label" style=""><p>+calculateArea()</p></span></div></foreignObject></g><g class="label" style="" transform="translate(0,12)"><foreignObject width="152.5" height="24"><div xmlns="http://www.w3.org/1999/xhtml" style="display: table-cell; white-space: nowrap; line-height: 1.5; max-width: 193px; text-align: center;"><span class="nodeLabel markdown-node-label" style=""><p>+calculatePerimeter()</p></span></div></foreignObject></g></g><g class="divider" style=""><path d="M-106.9296875 -15 C-60.52409451976838 -15, -14.118501539536766 -15, 106.9296875 -15 M-106.9296875 -15 C-61.78581757641906 -15, -16.641947652838127 -15, 106.9296875 -15" stroke="#9370DB" stroke-width="1.3" fill="none" stroke-dasharray="0 0" style=""/></g><g class="divider" style=""><path d="M-106.9296875 9 C-58.65378732637794 9, -10.377887152755875 9, 106.9296875 9 M-106.9296875 9 C-43.7618156330797 9, 19.4060562338406 9, 106.9296875 9" stroke="#9370DB" stroke-width="1.3" fill="none" stroke-dasharray="0 0" style=""/></g></g><g class="node default" id="classId-Circle-1" transform="translate(47.6953125, 274)"><g class="basic label-container"><path d="M-34.234375 -42 L34.234375 -42 L34.234375 42 L-34.234375 42" stroke="none" stroke-width="0" fill="#ECECFF" style=""/><path d="M-34.234375 -42 C-7.284403454554816 -42, 19.665568090890368 -42, 34.234375 -42 M-34.234375 -42 C-19.93429121240004 -42, -5.634207424800085 -42, 34.234375 -42 M34.234375 -42 C34.234375 -20.50063605223736, 34.234375 0.9987278955252776, 34.234375 42 M34.234375 -42 C34.234375 -16.80084617327187, 34.234375 8.398307653456257, 34.234375 42 M34.234375 42 C10.142466051304403 42, -13.949442897391194 42, -34.234375 42 M34.234375 42 C7.98662222065354 42, -18.26113055869292 42, -34.234375 42 M-34.234375 42 C-34.234375 14.541457875688128, -34.234375 -12.917084248623745, -34.234375 -42 M-34.234375 42 C-34.234375 10.099271173999924, -34.234375 -21.801457652000153, -34.234375 -42" stroke="#9370DB" stroke-width="1.3" fill="none" stroke-dasharray="0 0" style=""/></g><g class="annotation-group text" transform="translate(0, -18)"/><g class="label-group text" transform="translate(-22.234375, -18)"><g class="label" style="font-weight: bolder" transform="translate(0,-12)"><foreignObject width="44.46875" height="24"><div xmlns="http://www.w3.org/1999/xhtml" style="display: table-cell; white-space: nowrap; line-height: 1.5; max-width: 89px; text-align: center;"><span class="nodeLabel markdown-node-label" style=""><p>Circle</p></span></div></foreignObject></g></g><g class="members-group text" transform="translate(-22.234375, 30)"/><g class="methods-group text" transform="translate(-22.234375, 60)"/><g class="divider" style=""><path d="M-34.234375 6 C-11.962564824464835 6, 10.30924535107033 6, 34.234375 6 M-34.234375 6 C-19.796126057000453 6, -5.357877114000907 6, 34.234375 6" stroke="#9370DB" stroke-width="1.3" fill="none" stroke-dasharray="0 0" style=""/></g><g class="divider" style=""><path d="M-34.234375 24 C-12.934299557591345 24, 8.36577588481731 24, 34.234375 24 M-34.234375 24 C-8.783711714341326 24, 16.666951571317348 24, 34.234375 24" stroke="#9370DB" stroke-width="1.3" fill="none" stroke-dasharray="0 0" style=""/></g></g><g class="node default" id="classId-Rectangle-2" transform="translate(182.1640625, 274)"><g class="basic label-container"><path d="M-50.234375 -42 L50.234375 -42 L50.234375 42 L-50.234375 42" stroke="none" stroke-width="0" fill="#ECECFF" style=""/><path d="M-50.234375 -42 C-16.624772653759422 -42, 16.984829692481156 -42, 50.234375 -42 M-50.234375 -42 C-14.401184397879184 -42, 21.43200620424163 -42, 50.234375 -42 M50.234375 -42 C50.234375 -16.50365608250719, 50.234375 8.992687834985617, 50.234375 42 M50.234375 -42 C50.234375 -21.857990896011643, 50.234375 -1.7159817920232854, 50.234375 42 M50.234375 42 C11.50371575498282 42, -27.22694349003436 42, -50.234375 42 M50.234375 42 C15.755886109130323 42, -18.722602781739354 42, -50.234375 42 M-50.234375 42 C-50.234375 18.76750539924066, -50.234375 -4.4649892015186765, -50.234375 -42 M-50.234375 42 C-50.234375 10.348242957999695, -50.234375 -21.30351408400061, -50.234375 -42" stroke="#9370DB" stroke-width="1.3" fill="none" stroke-dasharray="0 0" style=""/></g><g class="annotation-group text" transform="translate(0, -18)"/><g class="label-group text" transform="translate(-38.234375, -18)"><g class="label" style="font-weight: bolder" transform="translate(0,-12)"><foreignObject width="76.46875" height="24"><div xmlns="http://www.w3.org/1999/xhtml" style="display: table-cell; white-space: nowrap; line-height: 1.5; max-width: 114px; text-align: center;"><span class="nodeLabel markdown-node-label" style=""><p>Rectangle</p></span></div></foreignObject></g></g><g class="members-group text" transform="translate(-38.234375, 30)"/><g class="methods-group text" transform="translate(-38.234375, 60)"/><g class="divider" style=""><path d="M-50.234375 6 C-12.319139507674173 6, 25.596095984651654 6, 50.234375 6 M-50.234375 6 C-11.226683419095068 6, 27.781008161809865 6, 50.234375 6" stroke="#9370DB" stroke-width="1.3" fill="none" stroke-dasharray="0 0" style=""/></g><g class="divider" style=""><path d="M-50.234375 24 C-18.83573042584971 24, 12.562914148300578 24, 50.234375 24 M-50.234375 24 C-28.164145292002853 24, -6.093915584005707 24, 50.234375 24" stroke="#9370DB" stroke-width="1.3" fill="none" stroke-dasharray="0 0" style=""/></g></g><g class="node default" id="classId-Square-3" transform="translate(182.1640625, 408)"><g class="basic label-container"><path d="M-39.125 -42 L39.125 -42 L39.125 42 L-39.125 42" stroke="none" stroke-width="0" fill="#ECECFF" style=""/><path d="M-39.125 -42 C-13.054194975737108 -42, 13.016610048525784 -42, 39.125 -42 M-39.125 -42 C-8.324268457423496 -42, 22.476463085153007 -42, 39.125 -42 M39.125 -42 C39.125 -14.066406086152323, 39.125 13.867187827695354, 39.125 42 M39.125 -42 C39.125 -10.173449038999635, 39.125 21.65310192200073, 39.125 42 M39.125 42 C9.874952355583943 42, -19.375095288832114 42, -39.125 42 M39.125 42 C10.175848475518467 42, -18.773303048963065 42, -39.125 42 M-39.125 42 C-39.125 24.21679610741727, -39.125 6.43359221483454, -39.125 -42 M-39.125 42 C-39.125 23.417726145781046, -39.125 4.835452291562092, -39.125 -42" stroke="#9370DB" stroke-width="1.3" fill="none" stroke-dasharray="0 0" style=""/></g><g class="annotation-group text" transform="translate(0, -18)"/><g class="label-group text" transform="translate(-27.125, -18)"><g class="label" style="font-weight: bolder" transform="translate(0,-12)"><foreignObject width="54.25" height="24"><div xmlns="http://www.w3.org/1999/xhtml" style="display: table-cell; white-space: nowrap; line-height: 1.5; max-width: 94px; text-align: center;"><span class="nodeLabel markdown-node-label" style=""><p>Square</p></span></div></foreignObject></g></g><g class="members-group text" transform="translate(-27.125, 30)"/><g class="methods-group text" transform="translate(-27.125, 60)"/><g class="divider" style=""><path d="M-39.125 6 C-20.14826018097739 6, -1.1715203619547765 6, 39.125 6 M-39.125 6 C-11.974539735981889 6, 15.175920528036222 6, 39.125 6" stroke="#9370DB" stroke-width="1.3" fill="none" stroke-dasharray="0 0" style=""/></g><g class="divider" style=""><path d="M-39.125 24 C-16.02192900499493 24, 7.081141990010138 24, 39.125 24 M-39.125 24 C-21.14269163003734 24, -3.1603832600746813 24, 39.125 24" stroke="#9370DB" stroke-width="1.3" fill="none" stroke-dasharray="0 0" style=""/></g></g></g></g></g></svg>