<svg id="my-svg" width="100%" xmlns="http://www.w3.org/2000/svg" xmlns:xlink="http://www.w3.org/1999/xlink" class="classDiagram" style="max-width: 415.891px; background-color: transparent;" viewBox="0 0 415.890625 522" role="graphics-document document" aria-roledescription="class"><style>#my-svg{font-family:"trebuchet ms",verdana,arial,sans-serif;font-size:16px;fill:#333;}@keyframes edge-animation-frame{from{stroke-dashoffset:0;}}@keyframes dash{to{stroke-dashoffset:0;}}#my-svg .edge-animation-slow{stroke-dasharray:9,5!important;stroke-dashoffset:900;animation:dash 50s linear infinite;stroke-linecap:round;}#my-svg .edge-animation-fast{stroke-dasharray:9,5!important;stroke-dashoffset:900;animation:dash 20s linear infinite;stroke-linecap:round;}#my-svg .error-icon{fill:#552222;}#my-svg .error-text{fill:#552222;stroke:#552222;}#my-svg .edge-thickness-normal{stroke-width:1px;}#my-svg .edge-thickness-thick{stroke-width:3.5px;}#my-svg .edge-pattern-solid{stroke-dasharray:0;}#my-svg .edge-thickness-invisible{stroke-width:0;fill:none;}#my-svg .edge-pattern-dashed{stroke-dasharray:3;}#my-svg .edge-pattern-dotted{stroke-dasharray:2;}#my-svg .marker{fill:#333333;stroke:#333333;}#my-svg .marker.cross{stroke:#333333;}#my-svg svg{font-family:"trebuchet ms",verdana,arial,sans-serif;font-size:16px;}#my-svg p{margin:0;}#my-svg g.classGroup text{fill:#9370DB;stroke:none;font-family:"trebuchet ms",verdana,arial,sans-serif;font-size:10px;}#my-svg g.classGroup text .title{font-weight:bolder;}#my-svg .nodeLabel,#my-svg .edgeLabel{color:#131300;}#my-svg .edgeLabel .label rect{fill:#ECECFF;}#my-svg .label text{fill:#131300;}#my-svg .labelBkg{background:#ECECFF;}#my-svg .edgeLabel .label span{background:#ECECFF;}#my-svg .classTitle{font-weight:bolder;}#my-svg .node rect,#my-svg .node circle,#my-svg .node ellipse,#my-svg .node polygon,#my-svg .node path{fill:#ECECFF;stroke:#9370DB;stroke-width:1px;}#my-svg .divider{stroke:#9370DB;stroke-width:1;}#my-svg g.clickable{cursor:pointer;}#my-svg g.classGroup rect{fill:#ECECFF;stroke:#9370DB;}#my-svg g.classGroup line{stroke:#9370DB;stroke-width:1;}#my-svg .classLabel .box{stroke:none;stroke-width:0;fill:#ECECFF;opacity:0.5;}#my-svg .classLabel .label{fill:#9370DB;font-size:10px;}#my-svg .relation{stroke:#333333;stroke-width:1;fill:none;}#my-svg .dashed-line{stroke-dasharray:3;}#my-svg .dotted-line{stroke-dasharray:1 2;}#my-svg #compositionStart,#my-svg .composition{fill:#333333!important;stroke:#333333!important;stroke-width:1;}#my-svg #compositionEnd,#my-svg .composition{fill:#333333!important;stroke:#333333!important;stroke-width:1;}#my-svg #dependencyStart,#my-svg .dependency{fill:#333333!important;stroke:#333333!important;stroke-width:1;}#my-svg #dependencyStart,#my-svg .dependency{fill:#333333!important;stroke:#333333!important;stroke-width:1;}#my-svg #extensionStart,#my-svg .extension{fill:transparent!important;stroke:#333333!important;stroke-width:1;}#my-svg #extensionEnd,#my-svg .extension{fill:transparent!important;stroke:#333333!important;stroke-width:1;}#my-svg #aggregationStart,#my-svg .aggregation{fill:transparent!important;stroke:#333333!important;stroke-width:1;}#my-svg #aggregationEnd,#my-svg .aggregation{fill:transparent!important;stroke:#333333!important;stroke-width:1;}#my-svg #lollipopStart,#my-svg .lollipop{fill:#ECECFF!important;stroke:#333333!important;stroke-width:1;}#my-svg #lollipopEnd,#my-svg .lollipop{fill:#ECECFF!important;stroke:#333333!important;stroke-width:1;}#my-svg .edgeTerminals{font-size:11px;line-height:initial;}#my-svg .classTitleText{text-anchor:middle;font-size:18px;fill:#333;}#my-svg .label-icon{display:inline-block;height:1em;overflow:visible;vertical-align:-0.125em;}#my-svg .node .label-icon path{fill:currentColor;stroke:revert;stroke-width:revert;}#my-svg :root{--mermaid-font-family:"trebuchet ms",verdana,arial,sans-serif;}</style><g><defs><marker id="my-svg_class-aggregationStart" class="marker aggregation class" refX="18" refY="7" markerWidth="190" markerHeight="240" orient="auto"><path d="M 18,7 L9,13 L1,7 L9,1 Z"/></marker></defs><defs><marker id="my-svg_class-aggregationEnd" class="marker aggregation class" refX="1" refY="7" markerWidth="20" markerHeight="28" orient="auto"><path d="M 18,7 L9,13 L1,7 L9,1 Z"/></marker></defs><defs><marker id="my-svg_class-extensionStart" class="marker extension class" refX="18" refY="7" markerWidth="190" markerHeight="240" orient="auto"><path d="M 1,7 L18,13 V 1 Z"/></marker></defs><defs><marker id="my-svg_class-extensionEnd" class="marker extension class" refX="1" refY="7" markerWidth="20" markerHeight="28" orient="auto"><path d="M 1,1 V 13 L18,7 Z"/></marker></defs><defs><marker id="my-svg_class-compositionStart" class="marker composition class" refX="18" refY="7" markerWidth="190" markerHeight="240" orient="auto"><path d="M 18,7 L9,13 L1,7 L9,1 Z"/></marker></defs><defs><marker id="my-svg_class-compositionEnd" class="marker composition class" refX="1" refY="7" markerWidth="20" markerHeight="28" orient="auto"><path d="M 18,7 L9,13 L1,7 L9,1 Z"/></marker></defs><defs><marker id="my-svg_class-dependencyStart" class="marker dependency class" refX="6" refY="7" markerWidth="190" markerHeight="240" orient="auto"><path d="M 5,7 L9,13 L1,7 L9,1 Z"/></marker></defs><defs><marker id="my-svg_class-dependencyEnd" class="marker dependency class" refX="13" refY="7" markerWidth="20" markerHeight="28" orient="auto"><path d="M 18,7 L9,13 L14,7 L9,1 Z"/></marker></defs><defs><marker id="my-svg_class-lollipopStart" class="marker lollipop class" refX="13" refY="7" markerWidth="190" markerHeight="240" orient="auto"><circle stroke="black" fill="transparent" cx="7" cy="7" r="6"/></marker></defs><defs><marker id="my-svg_class-lollipopEnd" class="marker lollipop class" refX="1" refY="7" markerWidth="190" markerHeight="240" orient="auto"><circle stroke="black" fill="transparent" cx="7" cy="7" r="6"/></marker></defs><g class="root"><g class="clusters"/><g class="edgePaths"><path d="M302.063,182L302.063,203.167C302.063,224.333,302.063,266.667,302.063,293C302.063,319.333,302.063,329.667,302.063,334.833L302.063,340" id="id_Book_Library_1" class="edge-thickness-normal edge-pattern-solid relation" style=";;;" data-edge="true" data-et="edge" data-id="id_Book_Library_1" data-points="W3sieCI6MzAyLjA2MjUsInkiOjE4Mn0seyJ4IjozMDIuMDYyNSwieSI6MzA5fSx7IngiOjMwMi4wNjI1LCJ5IjozNDZ9XQ==" marker-end="url(#my-svg_class-dependencyEnd)"/></g><g class="edgeLabels"><g class="edgeLabel" transform="translate(302.0625, 309)"><g class="label" data-id="id_Book_Library_1" transform="translate(-43.1484375, -12)"><foreignObject width="86.296875" height="24"><div xmlns="http://www.w3.org/1999/xhtml" class="labelBkg" style="display: table-cell; white-space: nowrap; line-height: 1.5; max-width: 200px; text-align: center;"><span class="edgeLabel"><p>contained in</p></span></div></foreignObject></g></g></g><g class="nodes"><g class="node default" id="classId-BankAccount-0" transform="translate(114.03125, 140)"><g class="basic label-container"><path d="M-106.03125 -132 L106.03125 -132 L106.03125 132 L-106.03125 132" stroke="none" stroke-width="0" fill="#ECECFF" style=""/><path d="M-106.03125 -132 C-29.428599231009187 -132, 47.174051537981626 -132, 106.03125 -132 M-106.03125 -132 C-28.314994584831638 -132, 49.401260830336724 -132, 106.03125 -132 M106.03125 -132 C106.03125 -74.81619670510969, 106.03125 -17.632393410219365, 106.03125 132 M106.03125 -132 C106.03125 -77.15002828472004, 106.03125 -22.300056569440073, 106.03125 132 M106.03125 132 C33.37293983884442 132, -39.28537032231117 132, -106.03125 132 M106.03125 132 C58.55661605471702 132, 11.081982109434037 132, -106.03125 132 M-106.03125 132 C-106.03125 69.36193624366354, -106.03125 6.723872487327057, -106.03125 -132 M-106.03125 132 C-106.03125 30.251738864966086, -106.03125 -71.49652227006783, -106.03125 -132" stroke="#9370DB" stroke-width="1.3" fill="none" stroke-dasharray="0 0" style=""/></g><g class="annotation-group text" transform="translate(0, -108)"/><g class="label-group text" transform="translate(-51.5625, -108)"><g class="label" style="font-weight: bolder" transform="translate(0,-12)"><foreignObject width="103.125" height="24"><div xmlns="http://www.w3.org/1999/xhtml" style="display: table-cell; white-space: nowrap; line-height: 1.5; max-width: 139px; text-align: center;"><span class="nodeLabel markdown-node-label" style=""><p>BankAccount</p></span></div></foreignObject></g></g><g class="members-group text" transform="translate(-94.03125, -60)"><g class="label" style="" transform="translate(0,-12)"><foreignObject width="118.28125" height="24"><div xmlns="http://www.w3.org/1999/xhtml" style="display: table-cell; white-space: nowrap; line-height: 1.5; max-width: 163px; text-align: center;"><span class="nodeLabel markdown-node-label" style=""><p>-accountNumber</p></span></div></foreignObject></g><g class="label" style="" transform="translate(0,12)"><foreignObject width="108.5" height="24"><div xmlns="http://www.w3.org/1999/xhtml" style="display: table-cell; white-space: nowrap; line-height: 1.5; max-width: 155px; text-align: center;"><span class="nodeLabel markdown-node-label" style=""><p>-accountHolder</p></span></div></foreignObject></g><g class="label" style="" transform="translate(0,36)"><foreignObject width="61.375" height="24"><div xmlns="http://www.w3.org/1999/xhtml" style="display: table-cell; white-space: nowrap; line-height: 1.5; max-width: 109px; text-align: center;"><span class="nodeLabel markdown-node-label" style=""><p>-balance</p></span></div></foreignObject></g><g class="label" style="" transform="translate(0,60)"><foreignObject width="96.0625" height="24"><div xmlns="http://www.w3.org/1999/xhtml" style="display: table-cell; white-space: nowrap; line-height: 1.5; max-width: 141px; text-align: center;"><span class="nodeLabel markdown-node-label" style=""><p>-accountType</p></span></div></foreignObject></g></g><g class="methods-group text" transform="translate(-94.03125, 60)"><g class="label" style="" transform="translate(0,-12)"><foreignObject width="124.96875" height="24"><div xmlns="http://www.w3.org/1999/xhtml" style="display: table-cell; white-space: nowrap; line-height: 1.5; max-width: 168px; text-align: center;"><span class="nodeLabel markdown-node-label" style=""><p>+deposit(amount)</p></span></div></foreignObject></g><g class="label" style="" transform="translate(0,12)"><foreignObject width="136.5" height="24"><div xmlns="http://www.w3.org/1999/xhtml" style="display: table-cell; white-space: nowrap; line-height: 1.5; max-width: 183px; text-align: center;"><span class="nodeLabel markdown-node-label" style=""><p>+withdraw(amount)</p></span></div></foreignObject></g><g class="label" style="" transform="translate(0,36)"><foreignObject width="100.0625" height="24"><div xmlns="http://www.w3.org/1999/xhtml" style="display: table-cell; white-space: nowrap; line-height: 1.5; max-width: 145px; text-align: center;"><span class="nodeLabel markdown-node-label" style=""><p>+getBalance()</p></span></div></foreignObject></g></g><g class="divider" style=""><path d="M-106.03125 -84 C-52.62718020080851 -84, 0.7768895983829793 -84, 106.03125 -84 M-106.03125 -84 C-52.06572810602583 -84, 1.8997937879483402 -84, 106.03125 -84" stroke="#9370DB" stroke-width="1.3" fill="none" stroke-dasharray="0 0" style=""/></g><g class="divider" style=""><path d="M-106.03125 36 C-55.413884836069734 36, -4.796519672139468 36, 106.03125 36 M-106.03125 36 C-29.307630097656784 36, 47.41598980468643 36, 106.03125 36" stroke="#9370DB" stroke-width="1.3" fill="none" stroke-dasharray="0 0" style=""/></g></g><g class="node default" id="classId-Library-1" transform="translate(302.0625, 430)"><g class="basic label-container"><path d="M-105.828125 -84 L105.828125 -84 L105.828125 84 L-105.828125 84" stroke="none" stroke-width="0" fill="#ECECFF" style=""/><path d="M-105.828125 -84 C-39.09644733039336 -84, 27.63523033921328 -84, 105.828125 -84 M-105.828125 -84 C-59.249585805556016 -84, -12.671046611112033 -84, 105.828125 -84 M105.828125 -84 C105.828125 -40.63984135319265, 105.828125 2.7203172936146984, 105.828125 84 M105.828125 -84 C105.828125 -17.973276742777728, 105.828125 48.053446514444545, 105.828125 84 M105.828125 84 C41.934578489094626 84, -21.958968021810747 84, -105.828125 84 M105.828125 84 C41.36377939385041 84, -23.100566212299185 84, -105.828125 84 M-105.828125 84 C-105.828125 20.519920071723483, -105.828125 -42.960159856553034, -105.828125 -84 M-105.828125 84 C-105.828125 49.47424097077906, -105.828125 14.948481941558114, -105.828125 -84" stroke="#9370DB" stroke-width="1.3" fill="none" stroke-dasharray="0 0" style=""/></g><g class="annotation-group text" transform="translate(0, -60)"/><g class="label-group text" transform="translate(-27.125, -60)"><g class="label" style="font-weight: bolder" transform="translate(0,-12)"><foreignObject width="54.25" height="24"><div xmlns="http://www.w3.org/1999/xhtml" style="display: table-cell; white-space: nowrap; line-height: 1.5; max-width: 98px; text-align: center;"><span class="nodeLabel markdown-node-label" style=""><p>Library</p></span></div></foreignObject></g></g><g class="members-group text" transform="translate(-93.828125, -12)"><g class="label" style="" transform="translate(0,-12)"><foreignObject width="102.28125" height="24"><div xmlns="http://www.w3.org/1999/xhtml" style="display: table-cell; white-space: nowrap; line-height: 1.5; max-width: 152px; text-align: center;"><span class="nodeLabel markdown-node-label" style=""><p>-books: Book[]</p></span></div></foreignObject></g></g><g class="methods-group text" transform="translate(-93.828125, 36)"><g class="label" style="" transform="translate(0,-12)"><foreignObject width="117.859375" height="24"><div xmlns="http://www.w3.org/1999/xhtml" style="display: table-cell; white-space: nowrap; line-height: 1.5; max-width: 164px; text-align: center;"><span class="nodeLabel markdown-node-label" style=""><p>+addBook(book)</p></span></div></foreignObject></g><g class="label" style="" transform="translate(0,12)"><foreignObject width="160.53125" height="24"><div xmlns="http://www.w3.org/1999/xhtml" style="display: table-cell; white-space: nowrap; line-height: 1.5; max-width: 207px; text-align: center;"><span class="nodeLabel markdown-node-label" style=""><p>+findBookByIsbn(isbn)</p></span></div></foreignObject></g></g><g class="divider" style=""><path d="M-105.828125 -36 C-63.495236956093365 -36, -21.16234891218673 -36, 105.828125 -36 M-105.828125 -36 C-24.79676377931692 -36, 56.23459744136616 -36, 105.828125 -36" stroke="#9370DB" stroke-width="1.3" fill="none" stroke-dasharray="0 0" style=""/></g><g class="divider" style=""><path d="M-105.828125 12 C-44.35075875739905 12, 17.1266074852019 12, 105.828125 12 M-105.828125 12 C-59.48607315807522 12, -13.144021316150443 12, 105.828125 12" stroke="#9370DB" stroke-width="1.3" fill="none" stroke-dasharray="0 0" style=""/></g></g><g class="node default" id="classId-Book-2" transform="translate(302.0625, 140)"><g class="basic label-container"><path d="M-32 -42 L32 -42 L32 42 L-32 42" stroke="none" stroke-width="0" fill="#ECECFF" style=""/><path d="M-32 -42 C-15.860383013802377 -42, 0.2792339723952466 -42, 32 -42 M-32 -42 C-18.321908157166874 -42, -4.643816314333751 -42, 32 -42 M32 -42 C32 -9.254173514936362, 32 23.491652970127276, 32 42 M32 -42 C32 -11.357991318923084, 32 19.284017362153833, 32 42 M32 42 C16.365063738117964 42, 0.7301274762359284 42, -32 42 M32 42 C14.133885514265483 42, -3.732228971469034 42, -32 42 M-32 42 C-32 14.17232116381437, -32 -13.65535767237126, -32 -42 M-32 42 C-32 16.383672065843953, -32 -9.232655868312094, -32 -42" stroke="#9370DB" stroke-width="1.3" fill="none" stroke-dasharray="0 0" style=""/></g><g class="annotation-group text" transform="translate(0, -18)"/><g class="label-group text" transform="translate(-20, -18)"><g class="label" style="font-weight: bolder" transform="translate(0,-12)"><foreignObject width="40" height="24"><div xmlns="http://www.w3.org/1999/xhtml" style="display: table-cell; white-space: nowrap; line-height: 1.5; max-width: 85px; text-align: center;"><span class="nodeLabel markdown-node-label" style=""><p>Book</p></span></div></foreignObject></g></g><g class="members-group text" transform="translate(-20, 30)"/><g class="methods-group text" transform="translate(-20, 60)"/><g class="divider" style=""><path d="M-32 6 C-18.123060534292705 6, -4.246121068585413 6, 32 6 M-32 6 C-7.266164622688706 6, 17.46767075462259 6, 32 6" stroke="#9370DB" stroke-width="1.3" fill="none" stroke-dasharray="0 0" style=""/></g><g class="divider" style=""><path d="M-32 24 C-10.550250955167435 24, 10.89949808966513 24, 32 24 M-32 24 C-9.593110175975841 24, 12.813779648048317 24, 32 24" stroke="#9370DB" stroke-width="1.3" fill="none" stroke-dasharray="0 0" style=""/></g></g></g></g></g></svg>