<svg id="my-svg" width="100%" xmlns="http://www.w3.org/2000/svg" xmlns:xlink="http://www.w3.org/1999/xlink" class="classDiagram" style="max-width: 291.172px; background-color: transparent;" viewBox="0 0 291.171875 258" role="graphics-document document" aria-roledescription="class"><style>#my-svg{font-family:"trebuchet ms",verdana,arial,sans-serif;font-size:16px;fill:#333;}@keyframes edge-animation-frame{from{stroke-dashoffset:0;}}@keyframes dash{to{stroke-dashoffset:0;}}#my-svg .edge-animation-slow{stroke-dasharray:9,5!important;stroke-dashoffset:900;animation:dash 50s linear infinite;stroke-linecap:round;}#my-svg .edge-animation-fast{stroke-dasharray:9,5!important;stroke-dashoffset:900;animation:dash 20s linear infinite;stroke-linecap:round;}#my-svg .error-icon{fill:#552222;}#my-svg .error-text{fill:#552222;stroke:#552222;}#my-svg .edge-thickness-normal{stroke-width:1px;}#my-svg .edge-thickness-thick{stroke-width:3.5px;}#my-svg .edge-pattern-solid{stroke-dasharray:0;}#my-svg .edge-thickness-invisible{stroke-width:0;fill:none;}#my-svg .edge-pattern-dashed{stroke-dasharray:3;}#my-svg .edge-pattern-dotted{stroke-dasharray:2;}#my-svg .marker{fill:#333333;stroke:#333333;}#my-svg .marker.cross{stroke:#333333;}#my-svg svg{font-family:"trebuchet ms",verdana,arial,sans-serif;font-size:16px;}#my-svg p{margin:0;}#my-svg g.classGroup text{fill:#9370DB;stroke:none;font-family:"trebuchet ms",verdana,arial,sans-serif;font-size:10px;}#my-svg g.classGroup text .title{font-weight:bolder;}#my-svg .nodeLabel,#my-svg .edgeLabel{color:#131300;}#my-svg .edgeLabel .label rect{fill:#ECECFF;}#my-svg .label text{fill:#131300;}#my-svg .labelBkg{background:#ECECFF;}#my-svg .edgeLabel .label span{background:#ECECFF;}#my-svg .classTitle{font-weight:bolder;}#my-svg .node rect,#my-svg .node circle,#my-svg .node ellipse,#my-svg .node polygon,#my-svg .node path{fill:#ECECFF;stroke:#9370DB;stroke-width:1px;}#my-svg .divider{stroke:#9370DB;stroke-width:1;}#my-svg g.clickable{cursor:pointer;}#my-svg g.classGroup rect{fill:#ECECFF;stroke:#9370DB;}#my-svg g.classGroup line{stroke:#9370DB;stroke-width:1;}#my-svg .classLabel .box{stroke:none;stroke-width:0;fill:#ECECFF;opacity:0.5;}#my-svg .classLabel .label{fill:#9370DB;font-size:10px;}#my-svg .relation{stroke:#333333;stroke-width:1;fill:none;}#my-svg .dashed-line{stroke-dasharray:3;}#my-svg .dotted-line{stroke-dasharray:1 2;}#my-svg #compositionStart,#my-svg .composition{fill:#333333!important;stroke:#333333!important;stroke-width:1;}#my-svg #compositionEnd,#my-svg .composition{fill:#333333!important;stroke:#333333!important;stroke-width:1;}#my-svg #dependencyStart,#my-svg .dependency{fill:#333333!important;stroke:#333333!important;stroke-width:1;}#my-svg #dependencyStart,#my-svg .dependency{fill:#333333!important;stroke:#333333!important;stroke-width:1;}#my-svg #extensionStart,#my-svg .extension{fill:transparent!important;stroke:#333333!important;stroke-width:1;}#my-svg #extensionEnd,#my-svg .extension{fill:transparent!important;stroke:#333333!important;stroke-width:1;}#my-svg #aggregationStart,#my-svg .aggregation{fill:transparent!important;stroke:#333333!important;stroke-width:1;}#my-svg #aggregationEnd,#my-svg .aggregation{fill:transparent!important;stroke:#333333!important;stroke-width:1;}#my-svg #lollipopStart,#my-svg .lollipop{fill:#ECECFF!important;stroke:#333333!important;stroke-width:1;}#my-svg #lollipopEnd,#my-svg .lollipop{fill:#ECECFF!important;stroke:#333333!important;stroke-width:1;}#my-svg .edgeTerminals{font-size:11px;line-height:initial;}#my-svg .classTitleText{text-anchor:middle;font-size:18px;fill:#333;}#my-svg .label-icon{display:inline-block;height:1em;overflow:visible;vertical-align:-0.125em;}#my-svg .node .label-icon path{fill:currentColor;stroke:revert;stroke-width:revert;}#my-svg :root{--mermaid-font-family:"trebuchet ms",verdana,arial,sans-serif;}</style><g><defs><marker id="my-svg_class-aggregationStart" class="marker aggregation class" refX="18" refY="7" markerWidth="190" markerHeight="240" orient="auto"><path d="M 18,7 L9,13 L1,7 L9,1 Z"/></marker></defs><defs><marker id="my-svg_class-aggregationEnd" class="marker aggregation class" refX="1" refY="7" markerWidth="20" markerHeight="28" orient="auto"><path d="M 18,7 L9,13 L1,7 L9,1 Z"/></marker></defs><defs><marker id="my-svg_class-extensionStart" class="marker extension class" refX="18" refY="7" markerWidth="190" markerHeight="240" orient="auto"><path d="M 1,7 L18,13 V 1 Z"/></marker></defs><defs><marker id="my-svg_class-extensionEnd" class="marker extension class" refX="1" refY="7" markerWidth="20" markerHeight="28" orient="auto"><path d="M 1,1 V 13 L18,7 Z"/></marker></defs><defs><marker id="my-svg_class-compositionStart" class="marker composition class" refX="18" refY="7" markerWidth="190" markerHeight="240" orient="auto"><path d="M 18,7 L9,13 L1,7 L9,1 Z"/></marker></defs><defs><marker id="my-svg_class-compositionEnd" class="marker composition class" refX="1" refY="7" markerWidth="20" markerHeight="28" orient="auto"><path d="M 18,7 L9,13 L1,7 L9,1 Z"/></marker></defs><defs><marker id="my-svg_class-dependencyStart" class="marker dependency class" refX="6" refY="7" markerWidth="190" markerHeight="240" orient="auto"><path d="M 5,7 L9,13 L1,7 L9,1 Z"/></marker></defs><defs><marker id="my-svg_class-dependencyEnd" class="marker dependency class" refX="13" refY="7" markerWidth="20" markerHeight="28" orient="auto"><path d="M 18,7 L9,13 L14,7 L9,1 Z"/></marker></defs><defs><marker id="my-svg_class-lollipopStart" class="marker lollipop class" refX="13" refY="7" markerWidth="190" markerHeight="240" orient="auto"><circle stroke="black" fill="transparent" cx="7" cy="7" r="6"/></marker></defs><defs><marker id="my-svg_class-lollipopEnd" class="marker lollipop class" refX="1" refY="7" markerWidth="190" markerHeight="240" orient="auto"><circle stroke="black" fill="transparent" cx="7" cy="7" r="6"/></marker></defs><g class="root"><g class="clusters"/><g class="edgePaths"><path d="M74.479,109.826L67.623,115.022C60.767,120.217,47.055,130.609,40.2,139.971C33.344,149.333,33.344,157.667,33.344,161.833L33.344,166" id="id_Vehicle_Car_1" class="edge-thickness-normal edge-pattern-solid relation" style=";;;" data-edge="true" data-et="edge" data-id="id_Vehicle_Car_1" data-points="W3sieCI6ODguMjI2NTYyNSwieSI6OTkuNDA3MDI5OTAzMzIwMX0seyJ4IjozMy4zNDM3NSwieSI6MTQxfSx7IngiOjMzLjM0Mzc1LCJ5IjoxNjZ9XQ==" marker-start="url(#my-svg_class-extensionStart)"/><path d="M137.586,133.25L137.586,134.542C137.586,135.833,137.586,138.417,137.586,143.875C137.586,149.333,137.586,157.667,137.586,161.833L137.586,166" id="id_Vehicle_Bike_2" class="edge-thickness-normal edge-pattern-solid relation" style=";;;" data-edge="true" data-et="edge" data-id="id_Vehicle_Bike_2" data-points="W3sieCI6MTM3LjU4NTkzNzUsInkiOjExNn0seyJ4IjoxMzcuNTg1OTM3NSwieSI6MTQxfSx7IngiOjEzNy41ODU5Mzc1LCJ5IjoxNjZ9XQ==" marker-start="url(#my-svg_class-extensionStart)"/><path d="M201.052,106.669L209.181,112.391C217.31,118.113,233.569,129.556,241.699,139.445C249.828,149.333,249.828,157.667,249.828,161.833L249.828,166" id="id_Vehicle_Truck_3" class="edge-thickness-normal edge-pattern-solid relation" style=";;;" data-edge="true" data-et="edge" data-id="id_Vehicle_Truck_3" data-points="W3sieCI6MTg2Ljk0NTMxMjUsInkiOjk2Ljc0MDg2NDQ4MTEwMjUzfSx7IngiOjI0OS44MjgxMjUsInkiOjE0MX0seyJ4IjoyNDkuODI4MTI1LCJ5IjoxNjZ9XQ==" marker-start="url(#my-svg_class-extensionStart)"/></g><g class="edgeLabels"><g class="edgeLabel"><g class="label" data-id="id_Vehicle_Car_1" transform="translate(0, 0)"><foreignObject width="0" height="0"><div xmlns="http://www.w3.org/1999/xhtml" class="labelBkg" style="display: table-cell; white-space: nowrap; line-height: 1.5; max-width: 200px; text-align: center;"><span class="edgeLabel"></span></div></foreignObject></g></g><g class="edgeLabel"><g class="label" data-id="id_Vehicle_Bike_2" transform="translate(0, 0)"><foreignObject width="0" height="0"><div xmlns="http://www.w3.org/1999/xhtml" class="labelBkg" style="display: table-cell; white-space: nowrap; line-height: 1.5; max-width: 200px; text-align: center;"><span class="edgeLabel"></span></div></foreignObject></g></g><g class="edgeLabel"><g class="label" data-id="id_Vehicle_Truck_3" transform="translate(0, 0)"><foreignObject width="0" height="0"><div xmlns="http://www.w3.org/1999/xhtml" class="labelBkg" style="display: table-cell; white-space: nowrap; line-height: 1.5; max-width: 200px; text-align: center;"><span class="edgeLabel"></span></div></foreignObject></g></g></g><g class="nodes"><g class="node default" id="classId-Vehicle-0" transform="translate(137.5859375, 62)"><g class="basic label-container"><path d="M-49.359375 -54 L49.359375 -54 L49.359375 54 L-49.359375 54" stroke="none" stroke-width="0" fill="#ECECFF" style=""/><path d="M-49.359375 -54 C-18.03598533520767 -54, 13.28740432958466 -54, 49.359375 -54 M-49.359375 -54 C-19.325174425677925 -54, 10.70902614864415 -54, 49.359375 -54 M49.359375 -54 C49.359375 -21.990979256469757, 49.359375 10.018041487060486, 49.359375 54 M49.359375 -54 C49.359375 -14.405624446925309, 49.359375 25.188751106149383, 49.359375 54 M49.359375 54 C15.304765867721379 54, -18.749843264557242 54, -49.359375 54 M49.359375 54 C9.92033866801836 54, -29.51869766396328 54, -49.359375 54 M-49.359375 54 C-49.359375 25.72355741473009, -49.359375 -2.552885170539817, -49.359375 -54 M-49.359375 54 C-49.359375 25.181204337206772, -49.359375 -3.637591325586456, -49.359375 -54" stroke="#9370DB" stroke-width="1.3" fill="none" stroke-dasharray="0 0" style=""/></g><g class="annotation-group text" transform="translate(-37.359375, -30)"><g class="label" style="" transform="translate(0,-12)"><foreignObject width="74.71875" height="24"><div xmlns="http://www.w3.org/1999/xhtml" style="display: table-cell; white-space: nowrap; line-height: 1.5; max-width: 116px; text-align: center;"><span class="nodeLabel markdown-node-label" style=""><p>«abstract»</p></span></div></foreignObject></g></g><g class="label-group text" transform="translate(-27.578125, -6)"><g class="label" style="font-weight: bolder" transform="translate(0,-12)"><foreignObject width="55.15625" height="24"><div xmlns="http://www.w3.org/1999/xhtml" style="display: table-cell; white-space: nowrap; line-height: 1.5; max-width: 98px; text-align: center;"><span class="nodeLabel markdown-node-label" style=""><p>Vehicle</p></span></div></foreignObject></g></g><g class="members-group text" transform="translate(-37.359375, 42)"/><g class="methods-group text" transform="translate(-37.359375, 72)"/><g class="divider" style=""><path d="M-49.359375 18 C-25.219962116521064 18, -1.0805492330421274 18, 49.359375 18 M-49.359375 18 C-28.49401537740687 18, -7.628655754813742 18, 49.359375 18" stroke="#9370DB" stroke-width="1.3" fill="none" stroke-dasharray="0 0" style=""/></g><g class="divider" style=""><path d="M-49.359375 36 C-22.523552953024915 36, 4.312269093950171 36, 49.359375 36 M-49.359375 36 C-26.59759373083592 36, -3.8358124616718428 36, 49.359375 36" stroke="#9370DB" stroke-width="1.3" fill="none" stroke-dasharray="0 0" style=""/></g></g><g class="node default" id="classId-Car-1" transform="translate(33.34375, 208)"><g class="basic label-container"><path d="M-25.34375 -42 L25.34375 -42 L25.34375 42 L-25.34375 42" stroke="none" stroke-width="0" fill="#ECECFF" style=""/><path d="M-25.34375 -42 C-10.396763790757712 -42, 4.5502224184845765 -42, 25.34375 -42 M-25.34375 -42 C-15.016087962133737 -42, -4.688425924267474 -42, 25.34375 -42 M25.34375 -42 C25.34375 -13.18953104930294, 25.34375 15.620937901394122, 25.34375 42 M25.34375 -42 C25.34375 -22.831102798035943, 25.34375 -3.6622055960718853, 25.34375 42 M25.34375 42 C14.961628828131056 42, 4.579507656262113 42, -25.34375 42 M25.34375 42 C10.744053199394733 42, -3.8556436012105344 42, -25.34375 42 M-25.34375 42 C-25.34375 11.71221320350551, -25.34375 -18.57557359298898, -25.34375 -42 M-25.34375 42 C-25.34375 9.11293860894645, -25.34375 -23.7741227821071, -25.34375 -42" stroke="#9370DB" stroke-width="1.3" fill="none" stroke-dasharray="0 0" style=""/></g><g class="annotation-group text" transform="translate(0, -18)"/><g class="label-group text" transform="translate(-13.34375, -18)"><g class="label" style="font-weight: bolder" transform="translate(0,-12)"><foreignObject width="26.6875" height="24"><div xmlns="http://www.w3.org/1999/xhtml" style="display: table-cell; white-space: nowrap; line-height: 1.5; max-width: 74px; text-align: center;"><span class="nodeLabel markdown-node-label" style=""><p>Car</p></span></div></foreignObject></g></g><g class="members-group text" transform="translate(-13.34375, 30)"/><g class="methods-group text" transform="translate(-13.34375, 60)"/><g class="divider" style=""><path d="M-25.34375 6 C-6.9894554287794435 6, 11.364839142441113 6, 25.34375 6 M-25.34375 6 C-14.979364458704037 6, -4.614978917408074 6, 25.34375 6" stroke="#9370DB" stroke-width="1.3" fill="none" stroke-dasharray="0 0" style=""/></g><g class="divider" style=""><path d="M-25.34375 24 C-13.715406713811856 24, -2.087063427623711 24, 25.34375 24 M-25.34375 24 C-10.330909039332266 24, 4.681931921335469 24, 25.34375 24" stroke="#9370DB" stroke-width="1.3" fill="none" stroke-dasharray="0 0" style=""/></g></g><g class="node default" id="classId-Bike-2" transform="translate(137.5859375, 208)"><g class="basic label-container"><path d="M-28.8984375 -42 L28.8984375 -42 L28.8984375 42 L-28.8984375 42" stroke="none" stroke-width="0" fill="#ECECFF" style=""/><path d="M-28.8984375 -42 C-16.862420098784284 -42, -4.826402697568568 -42, 28.8984375 -42 M-28.8984375 -42 C-9.127512995781597 -42, 10.643411508436806 -42, 28.8984375 -42 M28.8984375 -42 C28.8984375 -22.194227265090593, 28.8984375 -2.3884545301811855, 28.8984375 42 M28.8984375 -42 C28.8984375 -23.179383774419726, 28.8984375 -4.358767548839452, 28.8984375 42 M28.8984375 42 C11.432455026317871 42, -6.033527447364257 42, -28.8984375 42 M28.8984375 42 C8.21450972915678 42, -12.469418041686438 42, -28.8984375 42 M-28.8984375 42 C-28.8984375 18.365714016706992, -28.8984375 -5.268571966586016, -28.8984375 -42 M-28.8984375 42 C-28.8984375 18.026176627010976, -28.8984375 -5.947646745978048, -28.8984375 -42" stroke="#9370DB" stroke-width="1.3" fill="none" stroke-dasharray="0 0" style=""/></g><g class="annotation-group text" transform="translate(0, -18)"/><g class="label-group text" transform="translate(-16.8984375, -18)"><g class="label" style="font-weight: bolder" transform="translate(0,-12)"><foreignObject width="33.796875" height="24"><div xmlns="http://www.w3.org/1999/xhtml" style="display: table-cell; white-space: nowrap; line-height: 1.5; max-width: 80px; text-align: center;"><span class="nodeLabel markdown-node-label" style=""><p>Bike</p></span></div></foreignObject></g></g><g class="members-group text" transform="translate(-16.8984375, 30)"/><g class="methods-group text" transform="translate(-16.8984375, 60)"/><g class="divider" style=""><path d="M-28.8984375 6 C-11.438082864779279 6, 6.022271770441442 6, 28.8984375 6 M-28.8984375 6 C-8.375418226072632 6, 12.147601047854735 6, 28.8984375 6" stroke="#9370DB" stroke-width="1.3" fill="none" stroke-dasharray="0 0" style=""/></g><g class="divider" style=""><path d="M-28.8984375 24 C-6.826025278599307 24, 15.246386942801387 24, 28.8984375 24 M-28.8984375 24 C-15.019042900617348 24, -1.139648301234697 24, 28.8984375 24" stroke="#9370DB" stroke-width="1.3" fill="none" stroke-dasharray="0 0" style=""/></g></g><g class="node default" id="classId-Truck-3" transform="translate(249.828125, 208)"><g class="basic label-container"><path d="M-33.34375 -42 L33.34375 -42 L33.34375 42 L-33.34375 42" stroke="none" stroke-width="0" fill="#ECECFF" style=""/><path d="M-33.34375 -42 C-13.354411665649664 -42, 6.634926668700672 -42, 33.34375 -42 M-33.34375 -42 C-12.243066596126482 -42, 8.857616807747036 -42, 33.34375 -42 M33.34375 -42 C33.34375 -21.82697641277906, 33.34375 -1.6539528255581217, 33.34375 42 M33.34375 -42 C33.34375 -21.500988630270676, 33.34375 -1.0019772605413522, 33.34375 42 M33.34375 42 C16.71052941553229 42, 0.07730883106457753 42, -33.34375 42 M33.34375 42 C17.919562052544308 42, 2.4953741050886187 42, -33.34375 42 M-33.34375 42 C-33.34375 20.253524006524053, -33.34375 -1.4929519869518941, -33.34375 -42 M-33.34375 42 C-33.34375 25.16673744810782, -33.34375 8.333474896215641, -33.34375 -42" stroke="#9370DB" stroke-width="1.3" fill="none" stroke-dasharray="0 0" style=""/></g><g class="annotation-group text" transform="translate(0, -18)"/><g class="label-group text" transform="translate(-21.34375, -18)"><g class="label" style="font-weight: bolder" transform="translate(0,-12)"><foreignObject width="42.6875" height="24"><div xmlns="http://www.w3.org/1999/xhtml" style="display: table-cell; white-space: nowrap; line-height: 1.5; max-width: 88px; text-align: center;"><span class="nodeLabel markdown-node-label" style=""><p>Truck</p></span></div></foreignObject></g></g><g class="members-group text" transform="translate(-21.34375, 30)"/><g class="methods-group text" transform="translate(-21.34375, 60)"/><g class="divider" style=""><path d="M-33.34375 6 C-9.911911006152692 6, 13.519927987694615 6, 33.34375 6 M-33.34375 6 C-11.827508748794202 6, 9.688732502411597 6, 33.34375 6" stroke="#9370DB" stroke-width="1.3" fill="none" stroke-dasharray="0 0" style=""/></g><g class="divider" style=""><path d="M-33.34375 24 C-11.920288005349462 24, 9.503173989301075 24, 33.34375 24 M-33.34375 24 C-15.414743896645778 24, 2.5142622067084446 24, 33.34375 24" stroke="#9370DB" stroke-width="1.3" fill="none" stroke-dasharray="0 0" style=""/></g></g></g></g></g></svg>