<svg id="my-svg" width="100%" xmlns="http://www.w3.org/2000/svg" xmlns:xlink="http://www.w3.org/1999/xlink" class="classDiagram" style="max-width: 382.109px; background-color: transparent;" viewBox="0 0 382.109375 498" role="graphics-document document" aria-roledescription="class"><style>#my-svg{font-family:"trebuchet ms",verdana,arial,sans-serif;font-size:16px;fill:#333;}@keyframes edge-animation-frame{from{stroke-dashoffset:0;}}@keyframes dash{to{stroke-dashoffset:0;}}#my-svg .edge-animation-slow{stroke-dasharray:9,5!important;stroke-dashoffset:900;animation:dash 50s linear infinite;stroke-linecap:round;}#my-svg .edge-animation-fast{stroke-dasharray:9,5!important;stroke-dashoffset:900;animation:dash 20s linear infinite;stroke-linecap:round;}#my-svg .error-icon{fill:#552222;}#my-svg .error-text{fill:#552222;stroke:#552222;}#my-svg .edge-thickness-normal{stroke-width:1px;}#my-svg .edge-thickness-thick{stroke-width:3.5px;}#my-svg .edge-pattern-solid{stroke-dasharray:0;}#my-svg .edge-thickness-invisible{stroke-width:0;fill:none;}#my-svg .edge-pattern-dashed{stroke-dasharray:3;}#my-svg .edge-pattern-dotted{stroke-dasharray:2;}#my-svg .marker{fill:#333333;stroke:#333333;}#my-svg .marker.cross{stroke:#333333;}#my-svg svg{font-family:"trebuchet ms",verdana,arial,sans-serif;font-size:16px;}#my-svg p{margin:0;}#my-svg g.classGroup text{fill:#9370DB;stroke:none;font-family:"trebuchet ms",verdana,arial,sans-serif;font-size:10px;}#my-svg g.classGroup text .title{font-weight:bolder;}#my-svg .nodeLabel,#my-svg .edgeLabel{color:#131300;}#my-svg .edgeLabel .label rect{fill:#ECECFF;}#my-svg .label text{fill:#131300;}#my-svg .labelBkg{background:#ECECFF;}#my-svg .edgeLabel .label span{background:#ECECFF;}#my-svg .classTitle{font-weight:bolder;}#my-svg .node rect,#my-svg .node circle,#my-svg .node ellipse,#my-svg .node polygon,#my-svg .node path{fill:#ECECFF;stroke:#9370DB;stroke-width:1px;}#my-svg .divider{stroke:#9370DB;stroke-width:1;}#my-svg g.clickable{cursor:pointer;}#my-svg g.classGroup rect{fill:#ECECFF;stroke:#9370DB;}#my-svg g.classGroup line{stroke:#9370DB;stroke-width:1;}#my-svg .classLabel .box{stroke:none;stroke-width:0;fill:#ECECFF;opacity:0.5;}#my-svg .classLabel .label{fill:#9370DB;font-size:10px;}#my-svg .relation{stroke:#333333;stroke-width:1;fill:none;}#my-svg .dashed-line{stroke-dasharray:3;}#my-svg .dotted-line{stroke-dasharray:1 2;}#my-svg #compositionStart,#my-svg .composition{fill:#333333!important;stroke:#333333!important;stroke-width:1;}#my-svg #compositionEnd,#my-svg .composition{fill:#333333!important;stroke:#333333!important;stroke-width:1;}#my-svg #dependencyStart,#my-svg .dependency{fill:#333333!important;stroke:#333333!important;stroke-width:1;}#my-svg #dependencyStart,#my-svg .dependency{fill:#333333!important;stroke:#333333!important;stroke-width:1;}#my-svg #extensionStart,#my-svg .extension{fill:transparent!important;stroke:#333333!important;stroke-width:1;}#my-svg #extensionEnd,#my-svg .extension{fill:transparent!important;stroke:#333333!important;stroke-width:1;}#my-svg #aggregationStart,#my-svg .aggregation{fill:transparent!important;stroke:#333333!important;stroke-width:1;}#my-svg #aggregationEnd,#my-svg .aggregation{fill:transparent!important;stroke:#333333!important;stroke-width:1;}#my-svg #lollipopStart,#my-svg .lollipop{fill:#ECECFF!important;stroke:#333333!important;stroke-width:1;}#my-svg #lollipopEnd,#my-svg .lollipop{fill:#ECECFF!important;stroke:#333333!important;stroke-width:1;}#my-svg .edgeTerminals{font-size:11px;line-height:initial;}#my-svg .classTitleText{text-anchor:middle;font-size:18px;fill:#333;}#my-svg .label-icon{display:inline-block;height:1em;overflow:visible;vertical-align:-0.125em;}#my-svg .node .label-icon path{fill:currentColor;stroke:revert;stroke-width:revert;}#my-svg :root{--mermaid-font-family:"trebuchet ms",verdana,arial,sans-serif;}</style><g><defs><marker id="my-svg_class-aggregationStart" class="marker aggregation class" refX="18" refY="7" markerWidth="190" markerHeight="240" orient="auto"><path d="M 18,7 L9,13 L1,7 L9,1 Z"/></marker></defs><defs><marker id="my-svg_class-aggregationEnd" class="marker aggregation class" refX="1" refY="7" markerWidth="20" markerHeight="28" orient="auto"><path d="M 18,7 L9,13 L1,7 L9,1 Z"/></marker></defs><defs><marker id="my-svg_class-extensionStart" class="marker extension class" refX="18" refY="7" markerWidth="190" markerHeight="240" orient="auto"><path d="M 1,7 L18,13 V 1 Z"/></marker></defs><defs><marker id="my-svg_class-extensionEnd" class="marker extension class" refX="1" refY="7" markerWidth="20" markerHeight="28" orient="auto"><path d="M 1,1 V 13 L18,7 Z"/></marker></defs><defs><marker id="my-svg_class-compositionStart" class="marker composition class" refX="18" refY="7" markerWidth="190" markerHeight="240" orient="auto"><path d="M 18,7 L9,13 L1,7 L9,1 Z"/></marker></defs><defs><marker id="my-svg_class-compositionEnd" class="marker composition class" refX="1" refY="7" markerWidth="20" markerHeight="28" orient="auto"><path d="M 18,7 L9,13 L1,7 L9,1 Z"/></marker></defs><defs><marker id="my-svg_class-dependencyStart" class="marker dependency class" refX="6" refY="7" markerWidth="190" markerHeight="240" orient="auto"><path d="M 5,7 L9,13 L1,7 L9,1 Z"/></marker></defs><defs><marker id="my-svg_class-dependencyEnd" class="marker dependency class" refX="13" refY="7" markerWidth="20" markerHeight="28" orient="auto"><path d="M 18,7 L9,13 L14,7 L9,1 Z"/></marker></defs><defs><marker id="my-svg_class-lollipopStart" class="marker lollipop class" refX="13" refY="7" markerWidth="190" markerHeight="240" orient="auto"><circle stroke="black" fill="transparent" cx="7" cy="7" r="6"/></marker></defs><defs><marker id="my-svg_class-lollipopEnd" class="marker lollipop class" refX="1" refY="7" markerWidth="190" markerHeight="240" orient="auto"><circle stroke="black" fill="transparent" cx="7" cy="7" r="6"/></marker></defs><g class="root"><g class="clusters"/><g class="edgePaths"><path d="M99.959,286.38L98.786,288.15C97.613,289.92,95.267,293.46,94.095,299.397C92.922,305.333,92.922,313.667,92.922,317.833L92.922,322" id="id_User_Customer_1" class="edge-thickness-normal edge-pattern-solid relation" style=";;;" data-edge="true" data-et="edge" data-id="id_User_Customer_1" data-points="W3sieCI6MTA5LjQ4NjczODY1NDQ1ODYsInkiOjI3Mn0seyJ4Ijo5Mi45MjE4NzUsInkiOjI5N30seyJ4Ijo5Mi45MjE4NzUsInkiOjMyMn1d" marker-start="url(#my-svg_class-extensionStart)"/><path d="M293.94,286.38L295.113,288.15C296.285,289.92,298.631,293.46,299.804,301.397C300.977,309.333,300.977,321.667,300.977,327.833L300.977,334" id="id_User_Admin_2" class="edge-thickness-normal edge-pattern-solid relation" style=";;;" data-edge="true" data-et="edge" data-id="id_User_Admin_2" data-points="W3sieCI6Mjg0LjQxMTY5ODg0NTU0MTQsInkiOjI3Mn0seyJ4IjozMDAuOTc2NTYyNSwieSI6Mjk3fSx7IngiOjMwMC45NzY1NjI1LCJ5IjozMzR9XQ==" marker-start="url(#my-svg_class-extensionStart)"/></g><g class="edgeLabels"><g class="edgeLabel"><g class="label" data-id="id_User_Customer_1" transform="translate(0, 0)"><foreignObject width="0" height="0"><div xmlns="http://www.w3.org/1999/xhtml" class="labelBkg" style="display: table-cell; white-space: nowrap; line-height: 1.5; max-width: 200px; text-align: center;"><span class="edgeLabel"></span></div></foreignObject></g></g><g class="edgeLabel"><g class="label" data-id="id_User_Admin_2" transform="translate(0, 0)"><foreignObject width="0" height="0"><div xmlns="http://www.w3.org/1999/xhtml" class="labelBkg" style="display: table-cell; white-space: nowrap; line-height: 1.5; max-width: 200px; text-align: center;"><span class="edgeLabel"></span></div></foreignObject></g></g></g><g class="nodes"><g class="node default" id="classId-User-0" transform="translate(196.94921875, 140)"><g class="basic label-container"><path d="M-121.17578125 -132 L121.17578125 -132 L121.17578125 132 L-121.17578125 132" stroke="none" stroke-width="0" fill="#ECECFF" style=""/><path d="M-121.17578125 -132 C-26.20540498736048 -132, 68.76497127527904 -132, 121.17578125 -132 M-121.17578125 -132 C-26.570662262705667 -132, 68.03445672458867 -132, 121.17578125 -132 M121.17578125 -132 C121.17578125 -43.409689399907435, 121.17578125 45.18062120018513, 121.17578125 132 M121.17578125 -132 C121.17578125 -58.68257709124242, 121.17578125 14.634845817515156, 121.17578125 132 M121.17578125 132 C65.45301751531187 132, 9.730253780623741 132, -121.17578125 132 M121.17578125 132 C72.5040825743298 132, 23.8323838986596 132, -121.17578125 132 M-121.17578125 132 C-121.17578125 36.25496428478159, -121.17578125 -59.490071430436814, -121.17578125 -132 M-121.17578125 132 C-121.17578125 73.36744351899033, -121.17578125 14.734887037980656, -121.17578125 -132" stroke="#9370DB" stroke-width="1.3" fill="none" stroke-dasharray="0 0" style=""/></g><g class="annotation-group text" transform="translate(0, -108)"/><g class="label-group text" transform="translate(-17.7890625, -108)"><g class="label" style="font-weight: bolder" transform="translate(0,-12)"><foreignObject width="35.578125" height="24"><div xmlns="http://www.w3.org/1999/xhtml" style="display: table-cell; white-space: nowrap; line-height: 1.5; max-width: 81px; text-align: center;"><span class="nodeLabel markdown-node-label" style=""><p>User</p></span></div></foreignObject></g></g><g class="members-group text" transform="translate(-109.17578125, -60)"><g class="label" style="" transform="translate(0,-12)"><foreignObject width="89.84375" height="24"><div xmlns="http://www.w3.org/1999/xhtml" style="display: table-cell; white-space: nowrap; line-height: 1.5; max-width: 138px; text-align: center;"><span class="nodeLabel markdown-node-label" style=""><p>-Long userId</p></span></div></foreignObject></g><g class="label" style="" transform="translate(0,12)"><foreignObject width="89.8125" height="24"><div xmlns="http://www.w3.org/1999/xhtml" style="display: table-cell; white-space: nowrap; line-height: 1.5; max-width: 139px; text-align: center;"><span class="nodeLabel markdown-node-label" style=""><p>-String email</p></span></div></foreignObject></g><g class="label" style="" transform="translate(0,36)"><foreignObject width="157.40625" height="24"><div xmlns="http://www.w3.org/1999/xhtml" style="display: table-cell; white-space: nowrap; line-height: 1.5; max-width: 196px; text-align: center;"><span class="nodeLabel markdown-node-label" style=""><p>-String passwordHash</p></span></div></foreignObject></g><g class="label" style="" transform="translate(0,60)"><foreignObject width="129.84375" height="24"><div xmlns="http://www.w3.org/1999/xhtml" style="display: table-cell; white-space: nowrap; line-height: 1.5; max-width: 174px; text-align: center;"><span class="nodeLabel markdown-node-label" style=""><p>-Date registeredAt</p></span></div></foreignObject></g></g><g class="methods-group text" transform="translate(-109.17578125, 60)"><g class="label" style="" transform="translate(0,-12)"><foreignObject width="200.5625" height="24"><div xmlns="http://www.w3.org/1999/xhtml" style="display: table-cell; white-space: nowrap; line-height: 1.5; max-width: 241px; text-align: center;"><span class="nodeLabel markdown-node-label" style=""><p>+login(email, pwd) : boolean</p></span></div></foreignObject></g><g class="label" style="" transform="translate(0,12)"><foreignObject width="106.28125" height="24"><div xmlns="http://www.w3.org/1999/xhtml" style="display: table-cell; white-space: nowrap; line-height: 1.5; max-width: 156px; text-align: center;"><span class="nodeLabel markdown-node-label" style=""><p>+logout() : void</p></span></div></foreignObject></g><g class="label" style="" transform="translate(0,36)"><foreignObject width="188.125" height="24"><div xmlns="http://www.w3.org/1999/xhtml" style="display: table-cell; white-space: nowrap; line-height: 1.5; max-width: 228px; text-align: center;"><span class="nodeLabel markdown-node-label" style=""><p>+updateProfile(data) : void</p></span></div></foreignObject></g></g><g class="divider" style=""><path d="M-121.17578125 -84 C-27.47716830489236 -84, 66.22144464021528 -84, 121.17578125 -84 M-121.17578125 -84 C-63.3342178814581 -84, -5.492654512916204 -84, 121.17578125 -84" stroke="#9370DB" stroke-width="1.3" fill="none" stroke-dasharray="0 0" style=""/></g><g class="divider" style=""><path d="M-121.17578125 36 C-29.062083718749435 36, 63.05161381250113 36, 121.17578125 36 M-121.17578125 36 C-36.87862942088441 36, 47.41852240823118 36, 121.17578125 36" stroke="#9370DB" stroke-width="1.3" fill="none" stroke-dasharray="0 0" style=""/></g></g><g class="node default" id="classId-Customer-1" transform="translate(92.921875, 406)"><g class="basic label-container"><path d="M-84.921875 -84 L84.921875 -84 L84.921875 84 L-84.921875 84" stroke="none" stroke-width="0" fill="#ECECFF" style=""/><path d="M-84.921875 -84 C-17.779301995645298 -84, 49.363271008709404 -84, 84.921875 -84 M-84.921875 -84 C-36.21885366739213 -84, 12.484167665215736 -84, 84.921875 -84 M84.921875 -84 C84.921875 -29.514259600874645, 84.921875 24.97148079825071, 84.921875 84 M84.921875 -84 C84.921875 -25.253453500466797, 84.921875 33.493092999066405, 84.921875 84 M84.921875 84 C35.47311163590832 84, -13.975651728183365 84, -84.921875 84 M84.921875 84 C36.35821281988921 84, -12.205449360221579 84, -84.921875 84 M-84.921875 84 C-84.921875 46.81833731632609, -84.921875 9.636674632652173, -84.921875 -84 M-84.921875 84 C-84.921875 20.12927099394458, -84.921875 -43.74145801211084, -84.921875 -84" stroke="#9370DB" stroke-width="1.3" fill="none" stroke-dasharray="0 0" style=""/></g><g class="annotation-group text" transform="translate(0, -60)"/><g class="label-group text" transform="translate(-37.34375, -60)"><g class="label" style="font-weight: bolder" transform="translate(0,-12)"><foreignObject width="74.6875" height="24"><div xmlns="http://www.w3.org/1999/xhtml" style="display: table-cell; white-space: nowrap; line-height: 1.5; max-width: 113px; text-align: center;"><span class="nodeLabel markdown-node-label" style=""><p>Customer</p></span></div></foreignObject></g></g><g class="members-group text" transform="translate(-72.921875, -12)"><g class="label" style="" transform="translate(0,-12)"><foreignObject width="108.5" height="24"><div xmlns="http://www.w3.org/1999/xhtml" style="display: table-cell; white-space: nowrap; line-height: 1.5; max-width: 151px; text-align: center;"><span class="nodeLabel markdown-node-label" style=""><p>-String address</p></span></div></foreignObject></g><g class="label" style="" transform="translate(0,12)"><foreignObject width="96.0625" height="24"><div xmlns="http://www.w3.org/1999/xhtml" style="display: table-cell; white-space: nowrap; line-height: 1.5; max-width: 142px; text-align: center;"><span class="nodeLabel markdown-node-label" style=""><p>-String phone</p></span></div></foreignObject></g></g><g class="methods-group text" transform="translate(-72.921875, 60)"><g class="label" style="" transform="translate(0,-12)"><foreignObject width="99.15625" height="24"><div xmlns="http://www.w3.org/1999/xhtml" style="display: table-cell; white-space: nowrap; line-height: 1.5; max-width: 145px; text-align: center;"><span class="nodeLabel markdown-node-label" style=""><p>+placeOrder()</p></span></div></foreignObject></g></g><g class="divider" style=""><path d="M-84.921875 -36 C-23.807276533406885 -36, 37.30732193318623 -36, 84.921875 -36 M-84.921875 -36 C-30.83897243946813 -36, 23.24393012106374 -36, 84.921875 -36" stroke="#9370DB" stroke-width="1.3" fill="none" stroke-dasharray="0 0" style=""/></g><g class="divider" style=""><path d="M-84.921875 36 C-26.979910261968605 36, 30.96205447606279 36, 84.921875 36 M-84.921875 36 C-28.174924473914544 36, 28.572026052170912 36, 84.921875 36" stroke="#9370DB" stroke-width="1.3" fill="none" stroke-dasharray="0 0" style=""/></g></g><g class="node default" id="classId-Admin-2" transform="translate(300.9765625, 406)"><g class="basic label-container"><path d="M-73.1328125 -72 L73.1328125 -72 L73.1328125 72 L-73.1328125 72" stroke="none" stroke-width="0" fill="#ECECFF" style=""/><path d="M-73.1328125 -72 C-18.414823396100303 -72, 36.303165707799394 -72, 73.1328125 -72 M-73.1328125 -72 C-37.48893865403786 -72, -1.845064808075719 -72, 73.1328125 -72 M73.1328125 -72 C73.1328125 -24.77480022412209, 73.1328125 22.450399551755822, 73.1328125 72 M73.1328125 -72 C73.1328125 -32.52438053198729, 73.1328125 6.951238936025419, 73.1328125 72 M73.1328125 72 C34.233239444542086 72, -4.666333610915828 72, -73.1328125 72 M73.1328125 72 C17.518516576879115 72, -38.09577934624177 72, -73.1328125 72 M-73.1328125 72 C-73.1328125 15.636706204796013, -73.1328125 -40.72658759040797, -73.1328125 -72 M-73.1328125 72 C-73.1328125 39.69333527950025, -73.1328125 7.386670559000507, -73.1328125 -72" stroke="#9370DB" stroke-width="1.3" fill="none" stroke-dasharray="0 0" style=""/></g><g class="annotation-group text" transform="translate(0, -48)"/><g class="label-group text" transform="translate(-24.890625, -48)"><g class="label" style="font-weight: bolder" transform="translate(0,-12)"><foreignObject width="49.78125" height="24"><div xmlns="http://www.w3.org/1999/xhtml" style="display: table-cell; white-space: nowrap; line-height: 1.5; max-width: 94px; text-align: center;"><span class="nodeLabel markdown-node-label" style=""><p>Admin</p></span></div></foreignObject></g></g><g class="members-group text" transform="translate(-61.1328125, 0)"><g class="label" style="" transform="translate(0,-12)"><foreignObject width="78.25" height="24"><div xmlns="http://www.w3.org/1999/xhtml" style="display: table-cell; white-space: nowrap; line-height: 1.5; max-width: 128px; text-align: center;"><span class="nodeLabel markdown-node-label" style=""><p>-String role</p></span></div></foreignObject></g></g><g class="methods-group text" transform="translate(-61.1328125, 48)"><g class="label" style="" transform="translate(0,-12)"><foreignObject width="97.375" height="24"><div xmlns="http://www.w3.org/1999/xhtml" style="display: table-cell; white-space: nowrap; line-height: 1.5; max-width: 143px; text-align: center;"><span class="nodeLabel markdown-node-label" style=""><p>+deleteUser()</p></span></div></foreignObject></g></g><g class="divider" style=""><path d="M-73.1328125 -24 C-40.47590929528354 -24, -7.819006090567086 -24, 73.1328125 -24 M-73.1328125 -24 C-15.122618593817897 -24, 42.887575312364206 -24, 73.1328125 -24" stroke="#9370DB" stroke-width="1.3" fill="none" stroke-dasharray="0 0" style=""/></g><g class="divider" style=""><path d="M-73.1328125 24 C-36.009533284145 24, 1.1137459317099996 24, 73.1328125 24 M-73.1328125 24 C-38.176892723909084 24, -3.2209729478181686 24, 73.1328125 24" stroke="#9370DB" stroke-width="1.3" fill="none" stroke-dasharray="0 0" style=""/></g></g></g></g></g></svg>